<svg width="250" height="50" viewBox="0 0 250 50" fill="none" xmlns="http://www.w3.org/2000/svg">
<path d="M56.2106 21.8158H46.7632V9.07891H48.0527V20.6315H53.9474V9.07891H55.2105V20.6315H57.3948V23.7105H56.2106V21.8158ZM59.3421 9.07891H66.6316V10.3421H60.6316V14.3158H66.579V15.5526H60.6316V20.5789H66.579V21.8158H59.3421V9.07891ZM68.8158 9.07891H70.1053V14.421H76.579V9.07891H77.8684V21.8158H76.579V15.6579H70.1053V21.8158H68.8158V9.07891ZM79.6842 10.3421V9.07891H86.6579V10.3421H83.8158V21.8158H82.5263V10.3421H79.6842ZM88.5 9.07891H91.0527C92.5 9.07891 93.4737 9.15786 94 9.28944C94.7106 9.44733 95.3158 9.81575 95.7632 10.3947C96.2369 10.9473 96.4737 11.6315 96.4737 12.4736C96.4737 13.3421 96.2369 14.0263 95.7895 14.5789C95.3421 15.1315 94.7106 15.5 93.9474 15.6842C93.3421 15.8421 92.2632 15.8947 90.6842 15.8947H89.7895V21.8158H88.5V9.07891ZM89.7895 10.3421V14.6579L91.9474 14.6842C92.8158 14.6842 93.4474 14.6052 93.8684 14.4473C94.2632 14.2894 94.579 14.0263 94.8158 13.6842C95.0527 13.3158 95.1579 12.921 95.1579 12.5C95.1579 12.0526 95.0527 11.6579 94.8158 11.3158C94.579 10.9473 94.2632 10.7105 93.8948 10.5526C93.5263 10.3947 92.8948 10.3421 92.0263 10.3421H89.7895ZM103.921 21.8158V9.07891H110.289V10.3421H105.184V14.421H105.79C107.368 14.421 108.526 14.5526 109.237 14.8421C109.947 15.1052 110.5 15.5526 110.921 16.1579C111.342 16.7631 111.553 17.421 111.553 18.1842C111.553 19.1315 111.184 20 110.447 20.7368C109.711 21.4473 108.711 21.8158 107.421 21.8158H103.921ZM105.184 15.6842V20.5789H106.737C107.684 20.5789 108.342 20.5 108.789 20.3158C109.211 20.1315 109.553 19.8421 109.816 19.4736C110.053 19.0789 110.184 18.6579 110.184 18.2105C110.184 17.6052 110 17.1052 109.658 16.6842C109.289 16.2894 108.842 16.0263 108.29 15.8947C107.763 15.7631 106.947 15.6842 105.895 15.6842H105.184ZM114.079 9.07891H121.368V10.3421H115.368V14.3158H121.316V15.5526H115.368V20.5789H121.316V21.8158H114.079V9.07891ZM123.842 10.3421C124.737 9.28944 125.842 8.76312 127.158 8.76312C128.211 8.76312 129.079 9.07891 129.763 9.68418C130.447 10.2631 130.789 11.0526 130.789 12.0263C130.789 13.3684 130.158 14.3421 128.868 14.921C130.553 15.4473 131.395 16.5789 131.395 18.2894C131.395 19.4473 131 20.3947 130.263 21.0789C129.5 21.7894 128.474 22.1315 127.184 22.1315C126.263 22.1315 125.474 21.9473 124.789 21.5789C124.132 21.2105 123.474 20.5263 122.895 19.5789L123.868 19C124.474 19.8684 125.026 20.421 125.526 20.6842C126.053 20.921 126.579 21.0526 127.132 21.0526C127.947 21.0526 128.632 20.8158 129.211 20.3421C129.763 19.8684 130.053 19.1842 130.053 18.2894C130.053 17.8158 129.947 17.3947 129.763 17.0263C129.579 16.6842 129.289 16.3947 128.947 16.1842C128.605 15.9473 128.263 15.8158 127.947 15.7631C127.632 15.7105 127.105 15.6579 126.368 15.6579H126.158V14.5526H126.579C128.474 14.5526 129.421 13.7894 129.421 12.2631C129.421 11.5526 129.211 11 128.763 10.5789C128.342 10.1579 127.789 9.94733 127.132 9.94733C126.289 9.94733 125.474 10.3421 124.711 11.1052L123.842 10.3421ZM139.974 8.76312C141.895 8.76312 143.5 9.42102 144.789 10.7105C146.105 12 146.737 13.5789 146.737 15.4473C146.737 17.3158 146.105 18.8947 144.816 20.1842C143.5 21.5 141.921 22.1315 140.053 22.1315C138.184 22.1315 136.579 21.5 135.289 20.2105C134 18.921 133.342 17.3421 133.342 15.5263C133.342 14.2894 133.632 13.1579 134.237 12.1052C134.816 11.0789 135.632 10.2368 136.658 9.65786C137.658 9.07891 138.763 8.76312 139.974 8.76312ZM140.026 9.99996C139.079 9.99996 138.184 10.2631 137.342 10.7368C136.5 11.2368 135.842 11.8947 135.368 12.7368C134.895 13.5526 134.658 14.5 134.658 15.5C134.658 17.0263 135.184 18.2894 136.237 19.3421C137.263 20.3947 138.526 20.8947 140.026 20.8947C141 20.8947 141.921 20.6579 142.763 20.1842C143.605 19.7105 144.263 19.0526 144.737 18.2105C145.211 17.3947 145.447 16.4736 145.447 15.4473C145.447 14.4473 145.211 13.5263 144.737 12.7105C144.263 11.8947 143.605 11.2368 142.737 10.7368C141.895 10.2631 140.974 9.99996 140.026 9.99996ZM149.289 9.07891H158.342V21.8158H157.053V10.2894H150.553V21.8158H149.289V9.07891ZM166.632 9.07891L172.579 21.8158H171.211L169.211 17.6315H163.711L161.711 21.8158H160.316L166.316 9.07891H166.632ZM166.474 11.7631L164.289 16.3947H168.658L166.474 11.7631ZM186.395 11.4473L185.395 12.2105C184.842 11.5 184.184 10.9473 183.395 10.5789C182.632 10.2105 181.79 9.99996 180.842 9.99996C179.842 9.99996 178.895 10.2631 178.026 10.7368C177.158 11.2368 176.5 11.8947 176.026 12.7105C175.553 13.5263 175.316 14.4736 175.316 15.5C175.316 17.0526 175.842 18.3421 176.895 19.3684C177.974 20.421 179.316 20.9473 180.921 20.9473C182.711 20.9473 184.211 20.2368 185.395 18.8421L186.395 19.6052C185.763 20.421 184.974 21.0526 184.026 21.4736C183.079 21.921 182.026 22.1315 180.842 22.1315C178.632 22.1315 176.868 21.3947 175.579 19.921C174.5 18.6579 173.947 17.1579 173.947 15.3947C173.947 13.5263 174.605 11.9473 175.921 10.6842C177.237 9.3947 178.868 8.76312 180.842 8.76312C182.026 8.76312 183.105 8.99996 184.053 9.47365C185 9.94733 185.79 10.6052 186.395 11.4473ZM188.947 9.07891H190.211V14.421H196.711V9.07891H198V21.8158H196.711V15.6579H190.211V21.8158H188.947V9.07891ZM207.158 8.76312C209.079 8.76312 210.684 9.42102 212 10.7105C213.289 12 213.947 13.5789 213.947 15.4473C213.947 17.3158 213.289 18.8947 212 20.1842C210.684 21.5 209.132 22.1315 207.263 22.1315C205.368 22.1315 203.763 21.5 202.474 20.2105C201.184 18.921 200.526 17.3421 200.526 15.5263C200.526 14.2894 200.816 13.1579 201.421 12.1052C202 11.0789 202.816 10.2368 203.842 9.65786C204.868 9.07891 205.974 8.76312 207.158 8.76312ZM207.211 9.99996C206.263 9.99996 205.368 10.2631 204.526 10.7368C203.684 11.2368 203.026 11.8947 202.553 12.7368C202.079 13.5526 201.842 14.5 201.842 15.5C201.842 17.0263 202.368 18.2894 203.421 19.3421C204.474 20.3947 205.737 20.8947 207.211 20.8947C208.184 20.8947 209.105 20.6579 209.947 20.1842C210.789 19.7105 211.447 19.0526 211.921 18.2105C212.395 17.3947 212.632 16.4736 212.632 15.4473C212.632 14.4473 212.395 13.5263 211.921 12.7105C211.447 11.8947 210.789 11.2368 209.921 10.7368C209.079 10.2631 208.158 9.99996 207.211 9.99996ZM228.368 11.4473L227.342 12.2105C226.789 11.5 226.132 10.9473 225.368 10.5789C224.579 10.2105 223.737 9.99996 222.789 9.99996C221.789 9.99996 220.842 10.2631 219.974 10.7368C219.105 11.2368 218.447 11.8947 217.974 12.7105C217.5 13.5263 217.263 14.4736 217.263 15.5C217.263 17.0526 217.789 18.3421 218.842 19.3684C219.921 20.421 221.263 20.9473 222.895 20.9473C224.658 20.9473 226.158 20.2368 227.342 18.8421L228.368 19.6052C227.737 20.421 226.921 21.0526 225.974 21.4736C225.026 21.921 223.974 22.1315 222.789 22.1315C220.579 22.1315 218.816 21.3947 217.526 19.921C216.447 18.6579 215.921 17.1579 215.921 15.3947C215.921 13.5263 216.553 11.9473 217.868 10.6842C219.184 9.3947 220.816 8.76312 222.789 8.76312C223.974 8.76312 225.053 8.99996 226 9.47365C226.974 9.94733 227.737 10.6052 228.368 11.4473ZM229.658 10.3421V9.07891H236.632V10.3421H233.789V21.8158H232.5V10.3421H229.658ZM248.5 21.8158H247.184V12.0526L238.763 21.8158H238.474V9.07891H239.763V19.0263L248.211 9.07891H248.5V21.8158Z" fill="#0068AF"/>
<path d="M54.5524 40.2895H53.5261V32.8158L47.1051 40.2895H46.8945V30.5526H47.8682V38.1316L54.3419 30.5526H54.5524V40.2895ZM56.8945 30.5526H57.8682V34.6316H62.8419V30.5526H63.8156V40.2895H62.8419V35.579H57.8682V40.2895H56.8945V30.5526ZM70.3945 30.5526H71.3682V31.7895H72.1314C73.5787 31.7895 74.6051 32.079 75.184 32.6579C75.7366 33.2368 76.0261 33.9211 76.0261 34.7105C76.0261 35.4474 75.763 36.079 75.2893 36.6579C74.763 37.2105 73.8156 37.5 72.4208 37.5H71.3682V40.2895H70.3945V37.5H69.3419C68.6051 37.5 67.9998 37.4211 67.5261 37.2895C67.0261 37.1579 66.6051 36.8421 66.263 36.3684C65.9208 35.8947 65.763 35.3421 65.763 34.7105C65.763 33.9211 66.0261 33.2368 66.6051 32.6579C67.1577 32.079 68.184 31.7895 69.6577 31.7895H70.3945V30.5526ZM71.3682 32.7368V36.5526H72.3945H72.9208C73.6051 36.5526 74.1314 36.3947 74.4735 36.0263C74.8419 35.6842 75.0261 35.2368 75.0261 34.6842C75.0261 34.1053 74.8156 33.6316 74.3945 33.2895C73.9735 32.9211 73.3156 32.7368 72.4735 32.7368H71.3682ZM70.3945 32.7368H69.3156C68.4998 32.7368 67.8945 32.9211 67.4209 33.2368C66.9735 33.579 66.763 34.0526 66.763 34.6842C66.763 35.2368 66.9208 35.6842 67.2893 36.0263C67.6577 36.3947 68.184 36.5526 68.8945 36.5526H69.3945H70.3945V32.7368ZM82.6314 30.3158C84.1051 30.3158 85.3419 30.7895 86.3156 31.7895C87.3156 32.7632 87.8156 33.9737 87.8156 35.4211C87.8156 36.8421 87.3156 38.0526 86.3156 39.0263C85.3419 40.0263 84.1314 40.5263 82.7103 40.5263C81.263 40.5263 80.0524 40.0263 79.0524 39.0526C78.0524 38.0526 77.5524 36.8684 77.5524 35.4474C77.5524 34.5263 77.7893 33.6579 78.2366 32.8684C78.684 32.0526 79.3156 31.4474 80.0787 30.9737C80.8682 30.5263 81.7103 30.3158 82.6314 30.3158ZM82.6577 31.2632C81.9472 31.2632 81.263 31.4474 80.6314 31.8158C79.9735 32.1842 79.4735 32.6842 79.1051 33.3421C78.7366 33.9737 78.5524 34.6842 78.5524 35.4474C78.5524 36.6053 78.9735 37.579 79.763 38.3947C80.5787 39.1842 81.5261 39.579 82.6577 39.579C83.4208 39.579 84.1314 39.3947 84.763 39.0263C85.3945 38.6579 85.9208 38.1579 86.263 37.5263C86.6314 36.8947 86.8156 36.1842 86.8156 35.4211C86.8156 34.6316 86.6314 33.9474 86.263 33.3158C85.9208 32.6842 85.3945 32.1842 84.7366 31.8158C84.1051 31.4474 83.3945 31.2632 82.6577 31.2632ZM89.763 30.5526H91.7103C92.8156 30.5526 93.5787 30.6053 93.9472 30.6842C94.5261 30.8421 94.9735 31.1053 95.3156 31.5263C95.684 31.9737 95.8419 32.5 95.8419 33.1316C95.8419 33.7895 95.684 34.3158 95.3419 34.7368C94.9998 35.1579 94.5261 35.4474 93.9208 35.6053C93.4735 35.7105 92.6577 35.7632 91.4472 35.7632H90.7366V40.2895H89.763V30.5526ZM90.7366 31.5V34.8158H92.3945C93.0524 34.8158 93.5524 34.7632 93.8682 34.6316C94.1577 34.5263 94.4208 34.3158 94.5787 34.0526C94.763 33.7895 94.8419 33.4737 94.8419 33.1579C94.8419 32.8158 94.763 32.5263 94.5787 32.2368C94.4208 31.9737 94.184 31.7895 93.8945 31.6579C93.6051 31.5526 93.1314 31.5 92.4735 31.5H90.7366ZM97.3682 40.2895L98.7103 30.5526H98.9208L102.868 38.5263L106.816 30.5526H106.973L108.368 40.2895H107.421L106.447 33.3158L103 40.2895H102.737L99.263 33.2632L98.3156 40.2895H97.3682ZM114.237 30.5526L118.789 40.2895H117.737L116.21 37.079H112L110.473 40.2895H109.395L114 30.5526H114.237ZM114.105 32.6053L112.447 36.1316H115.789L114.105 32.6053ZM127.5 40.2895H120.289V30.5526H121.263V39.3684H125.763V30.5526H126.737V39.3684H128.395V41.7368H127.5V40.2895ZM137.552 40.2895H136.526V32.8158L130.105 40.2895H129.895V30.5526H130.868V38.1316L137.342 30.5526H137.552V40.2895ZM144.552 30.3158C146.026 30.3158 147.263 30.7895 148.237 31.7895C149.237 32.7632 149.737 33.9737 149.737 35.4211C149.737 36.8421 149.237 38.0526 148.237 39.0263C147.263 40.0263 146.052 40.5263 144.631 40.5263C143.184 40.5263 141.973 40.0263 140.973 39.0526C139.973 38.0526 139.473 36.8684 139.473 35.4474C139.473 34.5263 139.71 33.6579 140.158 32.8684C140.605 32.0526 141.237 31.4474 142 30.9737C142.789 30.5263 143.631 30.3158 144.552 30.3158ZM144.579 31.2632C143.868 31.2632 143.184 31.4474 142.552 31.8158C141.895 32.1842 141.395 32.6842 141.026 33.3421C140.658 33.9737 140.5 34.6842 140.5 35.4474C140.5 36.6053 140.895 37.579 141.684 38.3947C142.5 39.1842 143.447 39.579 144.579 39.579C145.342 39.579 146.052 39.3947 146.684 39.0263C147.342 38.6579 147.842 38.1579 148.184 37.5263C148.552 36.8947 148.737 36.1842 148.737 35.4211C148.737 34.6316 148.552 33.9474 148.184 33.3158C147.842 32.6842 147.316 32.1842 146.658 31.8158C146.026 31.4474 145.316 31.2632 144.579 31.2632ZM151.684 30.5526H152.658V34.6316H157.605V30.5526H158.579V40.2895H157.605V35.579H152.658V40.2895H151.684V30.5526ZM160.947 30.5526H161.921V34.6316H166.868V30.5526H167.842V40.2895H166.868V35.579H161.921V40.2895H160.947V30.5526ZM170.21 30.5526H171.184V34.7368H171.895C173.158 34.7368 174.079 34.7895 174.631 34.9211C175.184 35.0263 175.631 35.3158 175.973 35.7632C176.316 36.2105 176.5 36.7895 176.5 37.4737C176.5 38.1579 176.316 38.7368 176 39.1842C175.658 39.6316 175.237 39.9474 174.737 40.079C174.21 40.2105 173.368 40.2895 172.158 40.2895H170.21V30.5526ZM171.184 39.3421H172.237C173.316 39.3421 174.026 39.2895 174.368 39.1842C174.71 39.079 174.973 38.8947 175.158 38.6053C175.368 38.3158 175.447 37.9474 175.447 37.5263C175.447 37.0263 175.342 36.6316 175.079 36.3421C174.842 36.0263 174.526 35.8421 174.131 35.7632C173.763 35.7105 173.052 35.6842 172 35.6842H171.184V39.3421ZM177.631 30.5526H178.605V40.2895H177.631V30.5526ZM180.447 30.5526H181.605L183.921 34.3421L186.263 30.5526H187.395L184.5 35.2632L187.579 40.2895H186.447L183.921 36.1842L181.368 40.2895H180.237L183.342 35.2632L180.447 30.5526ZM202.052 32.3421L201.263 32.9474C200.842 32.3947 200.342 31.9737 199.737 31.6842C199.158 31.3947 198.5 31.2632 197.789 31.2632C197.026 31.2632 196.289 31.4474 195.631 31.8158C194.973 32.1842 194.473 32.6842 194.105 33.3158C193.737 33.9474 193.552 34.6579 193.552 35.4474C193.552 36.6316 193.973 37.6316 194.763 38.4211C195.579 39.2105 196.605 39.6053 197.842 39.6053C199.21 39.6053 200.368 39.079 201.263 38L202.052 38.579C201.552 39.2105 200.947 39.6842 200.237 40.0263C199.5 40.3684 198.684 40.5263 197.789 40.5263C196.079 40.5263 194.737 39.9737 193.763 38.8158C192.947 37.8684 192.526 36.7105 192.526 35.3684C192.526 33.9474 193.026 32.7368 194.026 31.7632C195.026 30.7895 196.263 30.3158 197.789 30.3158C198.684 30.3158 199.5 30.4737 200.237 30.8421C200.973 31.2105 201.579 31.7105 202.052 32.3421ZM211.658 40.2895H210.658V32.8158L204.237 40.2895H204V30.5526H204.973V38.1316L211.447 30.5526H211.658V40.2895ZM223.079 32.3421L222.316 32.9474C221.895 32.3947 221.395 31.9737 220.789 31.6842C220.21 31.3947 219.552 31.2632 218.842 31.2632C218.079 31.2632 217.342 31.4474 216.684 31.8158C216.026 32.1842 215.526 32.6842 215.158 33.3158C214.789 33.9474 214.605 34.6579 214.605 35.4474C214.605 36.6316 215 37.6316 215.816 38.4211C216.631 39.2105 217.658 39.6053 218.895 39.6053C220.263 39.6053 221.395 39.079 222.316 38L223.079 38.579C222.605 39.2105 222 39.6842 221.263 40.0263C220.552 40.3684 219.737 40.5263 218.842 40.5263C217.131 40.5263 215.789 39.9737 214.816 38.8158C214 37.8684 213.579 36.7105 213.579 35.3684C213.579 33.9474 214.079 32.7368 215.079 31.7632C216.079 30.7895 217.316 30.3158 218.842 30.3158C219.737 30.3158 220.552 30.4737 221.289 30.8421C222.026 31.2105 222.631 31.7105 223.079 32.3421ZM224.079 31.5V30.5526H229.421V31.5H227.237V40.2895H226.263V31.5H224.079ZM230.842 30.5526H236.395V31.5H231.816V34.5526H236.368V35.5H231.816V39.3421H236.368V40.2895H230.842V30.5526ZM237.658 40.2895L239.026 30.5526H239.21L243.184 38.5263L247.105 30.5526H247.263L248.658 40.2895H247.71L246.737 33.3158L243.289 40.2895H243.052L239.552 33.2632L238.631 40.2895H237.658Z" fill="#2B2A29"/>
<path fill-rule="evenodd" clip-rule="evenodd" d="M0 8.21053V20.9211C0.342105 35.6842 4.92105 42.6579 19.8947 48.6579C30.6579 44.4211 35.4211 40.6316 38.5263 32.1316C39.8158 28.5789 40.2105 25.4474 40.2895 21.7368L40.5789 8.21053C34.0263 4.63158 26.7105 2 19.9737 0C15.3158 1.89474 10.5263 3.44737 6.28947 4.92105V22.5789C7.36842 32.9737 11.9211 36.7895 20.0263 41.4737V36.8158C15 33.4211 11.3684 29.2368 10.7105 23.2105L10.4474 8.07895C20.5 5.92105 26.6316 7.15789 36.2895 10.4737V18.9211C36.6053 32.3947 32.421 38.7632 20.1579 44.2632C9.52631 39.1842 4.89474 34.3947 4.02632 21.4474V6.18421L0 8.21053Z" fill="#B7CBD8"/>
<path fill-rule="evenodd" clip-rule="evenodd" d="M33.7631 12.9736V14.9736V15L33.7368 22.5789C32.6578 32.9737 28.1315 36.7895 20.0262 41.4737V36.8158C25.0262 33.3947 28.6578 29.2368 29.3421 23.2105L29.6052 16.1315C26.7894 15.5263 24.1841 15.1842 21.6578 15.0789C18.6052 14.9736 15.9473 15.1579 12.9473 15.5V11.4473H12.9736V10.1579L17.1315 8.94733L17.0788 11.0263C18.2367 10.921 19.3683 10.8684 20.4999 10.8421V8.76312H25.4473V11C26.8157 11.1315 28.2105 11.3684 29.6315 11.7105L29.6052 9.76312L33.7631 10.9736V12.9736ZM13.3946 17.421L19.8157 24.6579L26.2104 17.421L19.8683 31.8684L13.3946 17.421Z" fill="#0068AF"/>
</svg>
