<svg width="41" height="49" viewBox="0 0 41 49" fill="none" xmlns="http://www.w3.org/2000/svg">
<path fill-rule="evenodd" clip-rule="evenodd" d="M0 8.21053V20.9211C0.342105 35.6842 4.92105 42.6579 19.8947 48.6579C30.6579 44.4211 35.4211 40.6316 38.5263 32.1316C39.8158 28.5789 40.2105 25.4474 40.2895 21.7368L40.5789 8.21053C34.0263 4.63158 26.7105 2 19.9737 0C15.3158 1.89474 10.5263 3.44737 6.28947 4.92105V22.5789C7.36842 32.9737 11.9211 36.7895 20.0263 41.4737V36.8158C15 33.4211 11.3684 29.2368 10.7105 23.2105L10.4474 8.07895C20.5 5.92105 26.6316 7.15789 36.2895 10.4737V18.9211C36.6053 32.3947 32.421 38.7632 20.1579 44.2632C9.52631 39.1842 4.89474 34.3947 4.02632 21.4474V6.18421L0 8.21053Z" fill="#B7CBD8"/>
<path fill-rule="evenodd" clip-rule="evenodd" d="M33.7631 12.9736V14.9736V15L33.7368 22.5789C32.6578 32.9737 28.1315 36.7895 20.0262 41.4737V36.8158C25.0262 33.3947 28.6578 29.2368 29.3421 23.2105L29.6052 16.1315C26.7894 15.5263 24.1841 15.1842 21.6578 15.0789C18.6052 14.9736 15.9473 15.1579 12.9473 15.5V11.4473H12.9736V10.1579L17.1315 8.94733L17.0788 11.0263C18.2367 10.921 19.3683 10.8684 20.4999 10.8421V8.76312H25.4473V11C26.8157 11.1315 28.2105 11.3684 29.6315 11.7105L29.6052 9.76312L33.7631 10.9736V12.9736ZM13.3946 17.421L19.8157 24.6579L26.2104 17.421L19.8683 31.8684L13.3946 17.421Z" fill="#0068AF"/>
</svg>
