<svg width="65" height="43" viewBox="0 0 65 43" fill="none" xmlns="http://www.w3.org/2000/svg">
<g clip-path="url(#clip0)">
<path d="M49.3354 7.34237V20.3707C49.3354 36.1899 35.9681 40.9369 32.1208 41.9802C28.8735 41.1065 14.9062 36.4116 14.9062 20.3837V7.34237L32.1208 2.73877L49.3354 7.34237Z" fill="white" stroke="#0A3474" stroke-width="1.4" stroke-miterlimit="10" stroke-linecap="round" stroke-linejoin="round"/>
<path d="M25.1569 18.2447L25.1048 18.2578C23.6833 18.636 22.7573 19.8358 22.7573 21.3225V25.0001C22.7573 30.0341 26.8523 34.1291 31.8863 34.1291H32.3427C37.3767 34.1291 41.4717 30.0341 41.4717 25.0001V21.3225C41.3804 19.8749 40.3762 18.6229 39.0329 18.2578L38.9808 18.2447V16.5363C38.9808 12.7152 35.8769 9.61133 32.0558 9.61133C28.2347 9.61133 25.1309 12.7152 25.1309 16.5363V18.2447H25.1569ZM26.8654 16.5363C26.8654 13.6672 29.1998 11.3197 32.0819 11.3197C34.951 11.3197 37.2984 13.6542 37.2984 16.5363V18.1665H26.8654V16.5363ZM38.2374 19.8749C39.0069 19.8749 39.685 20.553 39.685 21.3225V25.0001C39.685 29.0951 36.3595 32.4207 32.2645 32.4207H31.808C27.713 32.4207 24.3875 29.0951 24.3875 25.0001V21.3225C24.3875 20.553 25.0656 19.8749 25.8351 19.8749H38.2374Z" fill="#0A3474"/>
<path d="M31.1689 27.4131L31.2211 27.4262V30.2301C31.2211 30.7517 31.5601 31.0778 32.0688 31.0778C32.5904 31.0778 32.9295 30.7387 32.9295 30.2301V27.4262L32.9816 27.4131C34.2597 27.048 35.2378 25.7699 35.2378 24.4397C35.2378 22.6661 33.8554 21.2837 32.0818 21.2837C30.3734 21.2837 28.9258 22.7313 28.9258 24.4397C28.9258 25.809 29.8517 27.0349 31.1689 27.4131ZM32.0688 22.9008C32.8382 22.9008 33.5163 23.579 33.5163 24.3484C33.5163 25.1179 32.8382 25.796 32.0688 25.796C31.2993 25.796 30.6212 25.1179 30.6212 24.3484C30.6212 23.579 31.2993 22.9008 32.0688 22.9008Z" fill="#0A3474"/>
<path d="M14.9062 20.3838H8.54199" stroke="#0A3474" stroke-width="1.4" stroke-miterlimit="10" stroke-linecap="round" stroke-linejoin="round"/>
<path d="M4.7342 24.2047C6.84455 24.2047 8.55532 22.494 8.55532 20.3836C8.55532 18.2733 6.84455 16.5625 4.7342 16.5625C2.62386 16.5625 0.913086 18.2733 0.913086 20.3836C0.913086 22.494 2.62386 24.2047 4.7342 24.2047Z" stroke="#0A3474" stroke-width="1.4" stroke-miterlimit="10" stroke-linecap="round" stroke-linejoin="round"/>
<path d="M49.3354 20.3838H55.6996" stroke="#0A3474" stroke-width="1.4" stroke-miterlimit="10" stroke-linecap="round" stroke-linejoin="round"/>
<path d="M49.3354 13.9282H55.6996" stroke="#0A3474" stroke-width="1.4" stroke-miterlimit="10" stroke-linecap="round" stroke-linejoin="round"/>
<path d="M59.5076 24.2047C61.618 24.2047 63.3288 22.494 63.3288 20.3836C63.3288 18.2733 61.618 16.5625 59.5076 16.5625C57.3973 16.5625 55.6865 18.2733 55.6865 20.3836C55.6865 22.494 57.3973 24.2047 59.5076 24.2047Z" stroke="#0A3474" stroke-width="1.4" stroke-miterlimit="10" stroke-linecap="round" stroke-linejoin="round"/>
<path d="M55.6995 8.55508C57.8099 8.55508 59.5207 6.84431 59.5207 4.73396C59.5207 2.62362 57.8099 0.912842 55.6995 0.912842C53.5892 0.912842 51.8784 2.62362 51.8784 4.73396C51.8784 6.84431 53.5892 8.55508 55.6995 8.55508Z" stroke="#0A3474" stroke-width="1.4" stroke-miterlimit="10" stroke-linecap="round" stroke-linejoin="round"/>
<path d="M55.6997 8.54199V13.9281" stroke="#0A3474" stroke-width="1.4" stroke-miterlimit="10" stroke-linecap="round" stroke-linejoin="round"/>
<path d="M14.9062 13.9282H8.54199" stroke="#0A3474" stroke-width="1.4" stroke-miterlimit="10" stroke-linecap="round" stroke-linejoin="round"/>
<path d="M8.54231 8.55508C10.6527 8.55508 12.3634 6.84431 12.3634 4.73396C12.3634 2.62362 10.6527 0.912842 8.54231 0.912842C6.43196 0.912842 4.72119 2.62362 4.72119 4.73396C4.72119 6.84431 6.43196 8.55508 8.54231 8.55508Z" stroke="#0A3474" stroke-width="1.4" stroke-miterlimit="10" stroke-linecap="round" stroke-linejoin="round"/>
<path d="M8.54199 8.54199V13.9281" stroke="#0A3474" stroke-width="1.4" stroke-miterlimit="10" stroke-linecap="round" stroke-linejoin="round"/>
<path d="M14.9062 26.748H8.54199" stroke="#0A3474" stroke-width="1.4" stroke-miterlimit="10" stroke-linecap="round" stroke-linejoin="round"/>
<path d="M8.54231 39.776C10.6527 39.776 12.3634 38.0653 12.3634 35.9549C12.3634 33.8446 10.6527 32.1338 8.54231 32.1338C6.43196 32.1338 4.72119 33.8446 4.72119 35.9549C4.72119 38.0653 6.43196 39.776 8.54231 39.776Z" stroke="#0A3474" stroke-width="1.4" stroke-miterlimit="10" stroke-linecap="round" stroke-linejoin="round"/>
<path d="M8.54199 32.1341V26.748" stroke="#0A3474" stroke-width="1.4" stroke-miterlimit="10" stroke-linecap="round" stroke-linejoin="round"/>
<path d="M49.3354 26.748H55.6996" stroke="#0A3474" stroke-width="1.4" stroke-miterlimit="10" stroke-linecap="round" stroke-linejoin="round"/>
<path d="M55.6995 39.776C57.8099 39.776 59.5207 38.0653 59.5207 35.9549C59.5207 33.8446 57.8099 32.1338 55.6995 32.1338C53.5892 32.1338 51.8784 33.8446 51.8784 35.9549C51.8784 38.0653 53.5892 39.776 55.6995 39.776Z" stroke="#0A3474" stroke-width="1.4" stroke-miterlimit="10" stroke-linecap="round" stroke-linejoin="round"/>
<path d="M55.6997 32.1341V26.748" stroke="#0A3474" stroke-width="1.4" stroke-miterlimit="10" stroke-linecap="round" stroke-linejoin="round"/>
</g>
<defs>
<clipPath id="clip0">
<rect width="64.2417" height="42.88" fill="white"/>
</clipPath>
</defs>
</svg>
