<svg width="47" height="43" viewBox="0 0 47 43" fill="none" xmlns="http://www.w3.org/2000/svg">
<g clip-path="url(#clip0)">
<path d="M23.3449 21.8394C21.5773 21.8787 20.1764 23.3451 20.2156 25.1127C20.2549 26.8803 21.7214 28.2812 23.4889 28.2419C25.2565 28.2027 26.6575 26.7231 26.6182 24.9687C26.6051 24.589 26.5265 24.2224 26.3563 23.8296L26.317 23.7248L33.1647 16.8902C33.3742 16.6807 33.4659 16.3927 33.4528 16.1177C33.4266 15.869 33.2957 15.6333 33.0993 15.4762C32.9029 15.3191 32.6541 15.2405 32.3922 15.2667C32.1697 15.2929 31.9733 15.3845 31.8161 15.5416L25.0208 22.2715L24.9161 22.2191C24.4316 21.9442 23.8948 21.8263 23.3449 21.8394ZM23.4104 23.7641C24.1305 23.7641 24.6935 24.3271 24.6935 25.0472C24.6935 25.7673 24.1305 26.3304 23.4104 26.3304C22.6902 26.3304 22.1272 25.7673 22.1272 25.0472C22.1272 24.3271 22.6902 23.7641 23.4104 23.7641Z" fill="#0A3474"/>
<path d="M30.4414 31.1353H16.4318H16.4187C16.1699 31.1353 15.9342 31.2269 15.7509 31.4102C15.5676 31.5935 15.4629 31.8292 15.4629 32.091C15.4629 32.3529 15.5545 32.5886 15.7378 32.7719C15.9211 32.9552 16.1568 33.0599 16.4187 33.0599H30.4283H30.4414C30.6902 33.0599 30.9389 32.9683 31.1091 32.785C31.2925 32.6017 31.3972 32.366 31.3972 32.1172C31.3972 31.8554 31.3055 31.6197 31.1222 31.4364C30.9389 31.24 30.7033 31.1353 30.4414 31.1353Z" fill="#0A3474"/>
<path d="M40.6672 7.98679C36.281 3.0376 30.2843 0.20949 23.7902 0.0261862C23.764 0.0261862 23.7247 0.0261862 23.6985 0.0130931C23.6461 0 23.6069 0 23.5807 0C23.5676 0 23.5545 0 23.5283 0C23.5152 0 23.4759 0.0130931 23.4497 0.0130931H23.4236H23.3974C23.3319 0 23.2795 0 23.2272 0H23.1879C23.1486 0.0130931 23.1224 0.0130931 23.0962 0.0130931C16.6413 0.196397 10.4745 3.10307 6.15376 7.99989L6.11448 8.05226V8.06535L6.04901 8.157C2.16036 12.6087 0.0130931 18.3434 0 24.3139V24.3663C0 24.4186 0 24.4579 0 24.4972C0.0392793 31.1878 2.67099 37.407 7.4107 42.0158L7.44998 42.055C7.63328 42.2383 7.86895 42.33 8.11772 42.33C8.37959 42.33 8.61526 42.2253 8.79856 42.042L13.2895 37.1582C13.6299 36.7785 13.6168 36.2024 13.2633 35.8358L13.1848 35.7311C10.1472 32.7458 8.47124 28.7394 8.44505 24.4317C8.44505 24.3924 8.44505 24.3794 8.44505 24.3532C8.44505 24.3139 8.44505 24.2746 8.44505 24.2484C8.47124 20.3991 9.84601 16.7199 12.3206 13.8525C12.3468 13.8263 12.373 13.8001 12.3992 13.7739L12.4515 13.7085C15.2797 10.5269 19.1421 8.70691 23.3188 8.58908C23.3581 8.58908 23.3843 8.58908 23.4236 8.58908C23.4759 8.58908 23.5021 8.58908 23.5283 8.58908C27.7443 8.72001 31.6067 10.553 34.4349 13.7739C34.461 13.8132 34.5003 13.8394 34.5265 13.8656C37.0011 16.7068 38.3759 20.3729 38.4021 24.1961V24.4579C38.3759 28.7525 36.7131 32.7458 33.7016 35.718V35.7311L33.61 35.8096C33.2303 36.1501 33.191 36.7523 33.5445 37.1451L38.0224 42.0158C38.3628 42.3955 38.952 42.4347 39.3448 42.1074L39.371 42.0812C39.3971 42.0681 39.4102 42.042 39.4233 42.0289C44.0976 37.4855 46.7162 31.3187 46.7948 24.6674V24.5888C46.7948 24.5627 46.8078 24.5365 46.8078 24.5234C46.8209 24.471 46.8209 24.4448 46.8209 24.4186C46.8209 24.4186 46.8209 24.3925 46.8209 24.3663V24.3008C46.8078 18.2518 44.6344 12.4908 40.7195 8.03916L40.7981 7.89514L40.6803 8.01298L40.6672 7.98679ZM11.2208 36.3726L11.3255 36.4774L11.2208 36.5821L8.157 39.934L8.03916 39.803C4.38619 35.8751 2.22583 30.795 1.96397 25.4923L1.95087 25.3221H6.54655L6.55964 25.4792C6.80841 29.4857 8.47124 33.3481 11.2208 36.3726ZM10.3043 13.355C8.13082 16.1438 6.86079 19.5742 6.6382 23.2403L6.62511 23.3974H2.01634L2.02943 23.2272C2.26511 18.3827 3.92793 13.8787 6.84769 10.1864L6.95244 10.0424L10.3828 13.224L10.3043 13.355ZM22.4939 6.75604L22.3499 6.76913C18.4351 7.10955 14.7036 8.87712 11.8231 11.7445L11.7052 11.8493L8.27484 8.65454L8.39268 8.5367C12.2028 4.63496 17.1782 2.29129 22.4154 1.96397L22.5987 1.95087L22.4939 6.75604ZM35.0895 11.6921C32.2745 8.90331 28.543 7.17502 24.5627 6.82151L24.4055 6.80841L24.4972 2.04252L24.6674 2.05562C29.9308 2.44841 34.8538 4.72661 38.5068 8.49742L38.6246 8.61526L35.1943 11.7969L35.0895 11.6921ZM44.8046 25.4923C44.5427 30.8473 42.4086 35.9406 38.808 39.803L38.6901 39.934L35.5216 36.4774L35.6263 36.3726C38.3366 33.4005 39.9601 29.5249 40.2089 25.4792L40.222 25.3221H44.8046V25.4923ZM44.8962 23.2272L44.9093 23.3974H40.2744L40.2613 23.2403C40.0387 19.6397 38.7425 16.2354 36.5298 13.3812L36.4381 13.2633L39.8685 10.0817L39.9732 10.2257C42.9585 13.9965 44.6606 18.4875 44.8962 23.2272Z" fill="#0A3474"/>
</g>
<defs>
<clipPath id="clip0">
<rect width="46.834" height="42.33" fill="white"/>
</clipPath>
</defs>
</svg>
