<svg width="51" height="51" viewBox="0 0 51 51" fill="none" xmlns="http://www.w3.org/2000/svg">
<g clip-path="url(#clip0)">
<path d="M25.308 49.699C38.7788 49.699 49.699 38.7788 49.699 25.308C49.699 11.8372 38.7788 0.916992 25.308 0.916992C11.8372 0.916992 0.916992 11.8372 0.916992 25.308C0.916992 38.7788 11.8372 49.699 25.308 49.699Z" fill="white" stroke="#0A3474" stroke-width="1.4" stroke-miterlimit="10" stroke-linecap="round" stroke-linejoin="round"/>
<path d="M25.3082 5.85547C14.5798 5.85547 5.88184 14.5534 5.88184 25.2818C5.88184 36.0102 14.5798 44.7082 25.3082 44.7082C36.0365 44.7082 44.7345 36.0102 44.7345 25.2818C44.7345 14.5534 36.0365 5.85547 25.3082 5.85547ZM24.4698 8.39674V16.9768C22.4132 16.8982 20.3697 16.4921 18.4441 15.7848C19.8719 12.9029 21.9285 10.3747 24.4698 8.39674ZM24.4698 18.6928V24.4435H16.2434C16.322 22.007 16.8198 19.5967 17.7106 17.3305C19.8719 18.1296 22.1643 18.5749 24.4698 18.6535V18.6928ZM26.1596 18.6928C28.4651 18.6142 30.7575 18.1689 32.9189 17.3698C33.8097 19.6229 34.3074 22.0201 34.386 24.4435H26.1596V18.6928ZM26.1596 17.003V8.39674C28.7009 10.3878 30.7706 12.916 32.1853 15.811C30.2466 16.5052 28.2162 16.8982 26.1596 16.9637V17.003ZM28.1376 7.79417C31.7662 8.38364 35.1327 10.0735 37.7657 12.654C36.5343 13.6365 35.1851 14.4748 33.7704 15.1429C32.3949 12.3527 30.4824 9.85077 28.1376 7.79417ZM16.8591 15.156C15.4313 14.4879 14.0951 13.6627 12.8507 12.6933C15.4706 10.0997 18.8371 8.39674 22.4787 7.80727C20.1339 9.85077 18.2214 12.3527 16.8591 15.156ZM16.1648 16.7017C15.1824 19.1775 14.6322 21.7974 14.5405 24.4435H7.61095C7.79434 20.5791 9.23527 16.872 11.711 13.9116C13.0865 14.9988 14.5798 15.9289 16.1779 16.6755L16.1648 16.7017ZM14.5536 26.1333C14.6453 28.74 15.1824 31.3075 16.1255 33.7309C14.4881 34.4252 12.9424 35.3159 11.5277 36.3901C9.16977 33.4689 7.80744 29.8797 7.62405 26.1333H14.5536ZM16.2434 26.1333H24.4698V31.9363C22.1643 32.0149 19.885 32.421 17.7106 33.1676C16.8198 30.9276 16.3351 28.5436 16.2434 26.1333ZM24.4698 33.6261V42.1931C21.9023 40.1889 19.8195 37.6214 18.3917 34.6871C20.3566 34.0322 22.4001 33.6785 24.4698 33.6261ZM26.1596 42.1931V33.6261C28.2293 33.7047 30.2728 34.0715 32.2377 34.7264C30.7968 37.6345 28.714 40.1889 26.1596 42.1931ZM26.1596 31.897V26.1333H34.386C34.2943 28.5436 33.7966 30.9145 32.9189 33.1676C30.7313 32.4341 28.4651 32.0149 26.1596 31.9363V31.897ZM36.0758 26.1333H43.0578C42.8875 29.8928 41.5121 33.4951 39.1411 36.4294C37.7133 35.3683 36.1675 34.4776 34.5432 33.7833C35.4733 31.3337 35.9973 28.7531 36.0758 26.1333ZM36.0758 24.4435C35.9842 21.7712 35.434 19.1382 34.4515 16.6624C36.0365 15.9289 37.5299 14.9988 38.9053 13.8985C41.4073 16.8589 42.8744 20.566 43.0578 24.4435H36.0758ZM12.6411 37.6869C13.9379 36.7437 15.3265 35.9447 16.7936 35.3028C18.1559 38.1585 20.0946 40.6997 22.4787 42.7825C18.7454 42.18 15.2872 40.3985 12.6411 37.6869ZM28.1245 42.7563C30.5086 40.6866 32.4473 38.1454 33.8097 35.3028C35.2899 35.9316 36.6915 36.7437 37.9883 37.7C35.3292 40.4116 31.8841 42.1931 28.1376 42.7956L28.1245 42.7563Z" fill="#0A3474"/>
<path d="M49.6991 25.308V34.53C49.6991 45.743 40.2283 49.0964 37.5036 49.83C35.1981 49.2143 25.3081 45.8871 25.3081 34.53V25.2949H49.6991" fill="white"/>
<path d="M49.6991 25.308V34.53C49.6991 45.743 40.2283 49.0964 37.5036 49.83C35.1981 49.2143 25.3081 45.8871 25.3081 34.53V25.2949H49.6991" stroke="#0A3474" stroke-width="1.4" stroke-miterlimit="10" stroke-linecap="round" stroke-linejoin="round"/>
<path d="M31.7397 35.2764L35.2635 39.1276" stroke="#0A3474" stroke-width="1.7" stroke-miterlimit="10" stroke-linecap="round" stroke-linejoin="round"/>
<path d="M43.6997 31.7397L35.2637 39.1278" stroke="#0A3474" stroke-width="1.7" stroke-miterlimit="10" stroke-linecap="round" stroke-linejoin="round"/>
</g>
<defs>
<clipPath id="clip0">
<rect width="50.6159" height="50.76" fill="white"/>
</clipPath>
</defs>
</svg>
