<svg width="56" height="55" viewBox="0 0 56 55" fill="none" xmlns="http://www.w3.org/2000/svg">
<g clip-path="url(#clip0)">
<path d="M27.4654 16.9292C26.1697 16.9292 24.9718 17.4304 24.0551 18.3349C23.1384 19.2394 22.6372 20.4495 22.6372 21.7329C22.6372 24.3854 24.7885 26.5489 27.4409 26.5489C27.4409 26.5489 27.4409 26.5489 27.4532 26.5489C28.7366 26.5489 29.9467 26.0477 30.8512 25.1432C31.7557 24.2387 32.2691 23.0286 32.2691 21.7451C32.2691 19.0805 30.1178 16.9292 27.4654 16.9292ZM27.5265 24.8865H27.4654C27.4654 24.8865 27.4654 24.8865 27.4532 24.8865C26.6097 24.8865 25.8275 24.5687 25.2285 23.9698C24.6296 23.3708 24.2996 22.5885 24.2996 21.7451C24.2996 20.0094 25.7052 18.5916 27.4532 18.5793C29.1888 18.5793 30.6067 19.9972 30.6067 21.7329C30.6067 23.4319 29.2255 24.8498 27.5265 24.8865Z" fill="#0A3474"/>
<path d="M54.8944 26.6093C54.491 25.008 53.0609 23.8957 51.4108 23.8835H51.3863C49.7362 23.8835 48.2938 25.008 47.8905 26.6093L47.8782 26.6582H41.84V26.5971C41.3999 19.3609 35.6184 13.5427 28.3944 13.066H28.3333V7.10104L28.3822 7.08882C30.3013 6.61211 31.4747 4.64417 30.998 2.72513C30.5091 0.806085 28.5534 -0.367343 26.6343 0.109362C24.7153 0.586067 23.5418 2.554 24.0185 4.47305C24.3363 5.76871 25.3386 6.75879 26.6343 7.08882L26.6832 7.10104V13.0537H26.6221C23.4196 13.2371 20.3271 14.5205 17.9314 16.6474L17.8825 16.684L17.8458 16.6474L13.6655 12.467L13.6899 12.4304C14.1911 11.5992 14.3378 10.6213 14.1055 9.68014C13.8733 8.73895 13.2866 7.94444 12.4554 7.44329C11.612 6.94214 10.6341 6.79546 9.69294 7.0277C8.75175 7.25994 7.95724 7.84665 7.46831 8.67783C6.96716 9.50901 6.82048 10.4869 7.05272 11.4281C7.28496 12.3692 7.87168 13.1638 8.70286 13.6649C9.85184 14.3616 11.2942 14.3616 12.4432 13.6649L12.4798 13.6405L12.5165 13.6771L16.7091 17.8697L16.6724 17.9186C14.5456 20.3143 13.2621 23.4068 13.0788 26.6093V26.6704H7.11384L7.10162 26.6215C6.61269 24.6902 4.65697 23.5168 2.72571 23.9935C0.79444 24.4824 -0.378989 26.4382 0.10994 28.3694C0.342181 29.2984 0.928895 30.0929 1.74785 30.5818C2.57903 31.0708 3.54466 31.2174 4.47363 30.9852C5.76929 30.6674 6.77159 29.6529 7.10162 28.3572L7.11384 28.3083H13.0788V28.3694C13.531 35.63 19.3493 41.436 26.6099 41.8516H26.671V47.8899L26.6221 47.9021C24.703 48.3788 23.5296 50.3468 24.0063 52.2658C24.4952 54.1848 26.451 55.3583 28.37 54.8816C30.289 54.4049 31.4625 52.4369 30.9858 50.5179C30.668 49.2222 29.6657 48.2199 28.37 47.9021L28.3211 47.8899V41.8516H28.3822C31.5603 41.6561 34.6283 40.3848 37.0118 38.258L37.0607 38.2213L37.0974 38.258L41.3266 42.4872L41.3022 42.5239C40.4465 43.9418 40.6666 45.7386 41.8278 46.912C43.2212 48.3177 45.5069 48.3299 46.9126 46.9243C47.5971 46.252 47.976 45.3475 47.976 44.3818C47.976 43.4162 47.6093 42.5117 46.9248 41.8394C45.7636 40.666 43.9546 40.4337 42.5245 41.2894L42.4878 41.3138L42.4511 41.2771L38.2219 37.0479L38.2586 36.999C40.3732 34.6033 41.6444 31.5352 41.84 28.3572V28.2961H47.8782L47.8905 28.345C48.3672 30.264 50.3351 31.4375 52.2542 30.9607C53.1831 30.7285 53.9776 30.1418 54.4666 29.3228C54.9799 28.5039 55.1266 27.5382 54.8944 26.6093ZM11.9787 11.9414C11.612 12.3081 11.1231 12.5159 10.6097 12.5159C10.0963 12.5159 9.60737 12.3081 9.24068 11.9537C8.48284 11.1958 8.48284 9.96127 9.24068 9.20343C9.60737 8.83673 10.0963 8.62894 10.6097 8.62894C11.1231 8.62894 11.612 8.82451 11.9787 9.19121C12.3576 9.57013 12.5532 10.0468 12.5532 10.5724C12.5532 11.0858 12.3454 11.5747 11.9787 11.9414ZM3.64245 29.4206H3.618C2.54236 29.4084 1.68673 28.5161 1.69896 27.4405C1.71118 26.377 2.59125 25.5214 3.64245 25.5214C3.65467 25.5214 3.66689 25.5214 3.67912 25.5214C4.73031 25.5336 5.59816 26.4137 5.59816 27.4649C5.58594 28.5528 4.71809 29.4206 3.64245 29.4206ZM43.0134 43.0128C43.7712 42.255 45.0058 42.255 45.7636 43.0128C46.5215 43.7707 46.5215 44.993 45.7759 45.7508C45.3847 46.1297 44.8836 46.3131 44.3946 46.3131C43.9057 46.3131 43.4046 46.1297 43.0256 45.7631C42.2556 45.0052 42.2556 43.7707 43.0134 43.0128ZM26.1209 4.99865C25.7542 4.63195 25.5587 4.14302 25.5587 3.61742V3.59298C25.5709 2.52956 26.4387 1.68616 27.5022 1.68616C27.5144 1.68616 27.5266 1.68616 27.5388 1.68616C28.0522 1.69838 28.5411 1.90617 28.9078 2.27287C29.2745 2.63957 29.4579 3.14072 29.4579 3.65409C29.4456 4.70529 28.5778 5.56091 27.5144 5.56091C26.9766 5.57314 26.4876 5.36534 26.1209 4.99865ZM29.4456 51.3613C29.4456 51.8869 29.2379 52.3758 28.8712 52.7425C28.5045 53.1092 28.0155 53.3048 27.5022 53.3048H27.4899C26.9766 53.3048 26.4876 53.097 26.1209 52.7303C25.7542 52.3636 25.5587 51.8747 25.5587 51.3613C25.5587 50.2979 26.4265 49.43 27.5022 49.43C28.5656 49.4178 29.4456 50.2856 29.4456 51.3613ZM36.4251 36.5468C35.6795 37.2924 34.8361 37.9402 33.9193 38.4902L33.5037 38.7347L32.7459 39.1014L31.9881 39.407C30.5335 39.957 29.0056 40.2259 27.4777 40.2259C25.9743 40.2259 24.483 39.9693 23.0529 39.4437L23.0162 39.4314L22.0384 39.0158L21.085 38.5269C18.127 36.8279 16.0123 34.0777 15.1323 30.7774C14.2522 27.4771 14.6922 24.0424 16.4035 21.0966C16.9657 20.131 17.638 19.2387 18.4325 18.4564C20.8405 16.0607 24.0308 14.7405 27.4288 14.7405H27.4655C30.8758 14.7528 34.0782 16.0851 36.474 18.5053C38.882 20.9255 40.2021 24.128 40.1898 27.5382C40.1776 30.9485 38.8453 34.1388 36.4251 36.5468ZM51.3741 29.4206C50.2984 29.4206 49.4306 28.5528 49.4306 27.4771C49.4306 26.4015 50.2984 25.5336 51.3741 25.5336C52.4497 25.5336 53.3176 26.4015 53.3176 27.4771C53.3298 28.5528 52.4497 29.4206 51.3741 29.4206Z" fill="#0A3474"/>
<path d="M35.0318 32.8681C35.0318 35.3005 31.6338 37.8919 27.4412 37.8919C23.2486 37.8919 19.8506 35.3005 19.8506 32.8681C19.8506 30.4357 23.2486 28.4678 27.4412 28.4678C31.6338 28.4678 35.0318 30.4479 35.0318 32.8681Z" stroke="#0A3474" stroke-width="1.4" stroke-miterlimit="10"/>
</g>
<defs>
<clipPath id="clip0">
<rect width="55.0044" height="54.98" fill="white"/>
</clipPath>
</defs>
</svg>
