<svg width="46" height="52" viewBox="0 0 46 52" fill="none" xmlns="http://www.w3.org/2000/svg">
<g clip-path="url(#clip0)">
<path d="M44.3296 6.68417V23.109C44.3296 43.0748 27.4575 49.0633 22.5996 50.3802C18.4872 49.2745 0.869629 43.3605 0.869629 23.1339V6.68417L22.5996 0.869629L44.3296 6.68417Z" fill="white" stroke="#0A3474" stroke-width="1.7" stroke-miterlimit="10" stroke-linecap="round" stroke-linejoin="round"/>
<path d="M38.9997 11.3184V23.7302C38.9997 38.8008 26.2649 43.3232 22.5997 44.3172C19.4936 43.4847 6.19971 39.012 6.19971 23.7426V11.3184L22.5997 6.93262L38.9997 11.3184Z" fill="white" stroke="#0A3474" stroke-width="1.7" stroke-miterlimit="10" stroke-linecap="round" stroke-linejoin="round"/>
<path d="M22.5994 35.4338C21.8788 35.4338 21.1955 35.1481 20.6861 34.6387C19.63 33.5826 19.63 31.8681 20.6861 30.8244C21.1955 30.3151 21.8788 30.0293 22.5994 30.0293C23.32 30.0293 24.0034 30.3151 24.5128 30.8244C25.0222 31.3338 25.3079 32.0172 25.3079 32.7378C25.3079 33.4584 25.0222 34.1417 24.5128 34.6511C23.9909 35.1605 23.32 35.4338 22.5994 35.4338ZM22.5994 31.5326C22.2764 31.5326 21.9782 31.6569 21.7546 31.8805C21.2825 32.3526 21.2825 33.1105 21.7546 33.5826C22.2143 34.0423 22.997 34.0423 23.4567 33.5826C23.6803 33.359 23.8046 33.0608 23.8046 32.7378C23.8046 32.4148 23.6803 32.1166 23.4567 31.8929C23.2206 31.6569 22.9225 31.5326 22.5994 31.5326Z" fill="#0A3474"/>
<path d="M22.5994 35.62C21.8291 35.62 21.1085 35.3219 20.5618 34.7752C19.4312 33.6446 19.4312 31.8182 20.5618 30.6876C21.1085 30.141 21.8291 29.8428 22.5994 29.8428C23.3697 29.8428 24.0903 30.141 24.637 30.6876C25.1836 31.2343 25.4818 31.9549 25.4818 32.7252C25.4818 33.4955 25.1836 34.2161 24.637 34.7628C24.0903 35.3219 23.3697 35.62 22.5994 35.62ZM22.5994 30.2279C21.9285 30.2279 21.2949 30.4888 20.8227 30.961C19.8412 31.9425 19.8412 33.5328 20.8227 34.5143C21.2949 34.9864 21.9285 35.2473 22.5994 35.2473C23.2703 35.2473 23.9039 34.9864 24.3761 34.5143C24.8482 34.0422 25.1091 33.4085 25.1091 32.7376C25.1091 32.0667 24.8482 31.4331 24.3761 30.961C23.9039 30.4888 23.2703 30.2279 22.5994 30.2279ZM22.5994 34.1043C22.2391 34.1043 21.8788 33.9676 21.6179 33.7067C21.0836 33.16 21.0836 32.2903 21.6179 31.7437C22.1397 31.2219 23.0591 31.2219 23.5809 31.7437C23.8418 32.0046 23.9909 32.3525 23.9909 32.7252C23.9909 33.0979 23.8418 33.4458 23.5809 33.7067C23.32 33.98 22.9597 34.1043 22.5994 34.1043ZM22.5994 31.7188C22.3261 31.7188 22.0776 31.8182 21.8788 32.017C21.4812 32.4146 21.4812 33.0607 21.8788 33.4458C22.2639 33.831 22.9349 33.831 23.3076 33.4458C23.4939 33.2594 23.6058 32.9985 23.6058 32.7252C23.6058 32.4519 23.5064 32.2034 23.3076 32.0046C23.1088 31.8058 22.8727 31.7188 22.5994 31.7188Z" fill="#0A3474"/>
<path d="M26.3889 28.8491C26.2025 28.8491 26.0038 28.7745 25.8547 28.6254C24.0532 26.8239 21.1335 26.8239 19.3319 28.6254C19.0338 28.9236 18.5616 28.9236 18.2759 28.6254C17.9777 28.3272 17.9777 27.8551 18.2759 27.5694C20.6613 25.1839 24.5377 25.1839 26.9232 27.5694C27.2213 27.8675 27.2213 28.3397 26.9232 28.6254C26.7741 28.7745 26.5877 28.8491 26.3889 28.8491Z" fill="#0A3474"/>
<path d="M26.3888 29.0355C26.1403 29.0355 25.9042 28.9361 25.7303 28.7622C24.0033 27.0352 21.1954 27.0352 19.4684 28.7622C19.1081 29.1225 18.5118 29.1225 18.1391 28.7622C17.9651 28.5883 17.8657 28.3522 17.8657 28.1037C17.8657 27.8552 17.9651 27.6192 18.1391 27.4452C19.3318 26.2525 20.9097 25.6064 22.5869 25.6064C24.2642 25.6064 25.8545 26.2649 27.0472 27.4452C27.2212 27.6192 27.3206 27.8552 27.3206 28.1037C27.3206 28.3522 27.2212 28.5883 27.0472 28.7622C26.8733 28.9361 26.6372 29.0355 26.3888 29.0355ZM22.5994 27.0974C23.8294 27.0974 25.0594 27.5695 25.9912 28.5013C26.2024 28.7125 26.5751 28.7125 26.7863 28.5013C26.8981 28.3895 26.9478 28.2528 26.9478 28.1037C26.9478 27.9546 26.8857 27.8055 26.7863 27.7061C25.6681 26.588 24.1772 25.9667 22.5994 25.9667C21.0215 25.9667 19.5306 26.588 18.4124 27.7061C18.3006 27.8055 18.2509 27.9546 18.2509 28.1037C18.2509 28.2528 18.313 28.3895 18.4124 28.5013C18.636 28.7249 18.9839 28.7249 19.2075 28.5013C20.1394 27.5571 21.3694 27.0974 22.5994 27.0974Z" fill="#0A3474"/>
<path d="M29.9922 25.3453C29.8058 25.3453 29.607 25.2708 29.4579 25.1217C27.6191 23.2829 25.184 22.2766 22.5873 22.2766C19.9906 22.2766 17.5555 23.2829 15.7167 25.1217C15.4185 25.4199 14.9464 25.4199 14.6606 25.1217C14.3625 24.8235 14.3625 24.3514 14.6606 24.0656C16.7728 21.9411 19.5931 20.7856 22.5873 20.7856C25.5816 20.7856 28.4019 21.9535 30.514 24.0656C30.8122 24.3638 30.8122 24.8359 30.514 25.1217C30.3773 25.2708 30.1909 25.3453 29.9922 25.3453Z" fill="#0A3474"/>
<path d="M29.9921 25.5318C29.7436 25.5318 29.5076 25.4324 29.3336 25.2584C27.5321 23.4569 25.1466 22.463 22.5997 22.463C20.0527 22.463 17.6673 23.4569 15.8657 25.2584C15.5054 25.6187 14.9091 25.6187 14.5363 25.2584C14.176 24.8981 14.176 24.3018 14.5363 23.929C16.6857 21.7796 19.5557 20.5869 22.5997 20.5869C25.6436 20.5869 28.5012 21.7796 30.663 23.929C31.0233 24.2893 31.0233 24.8857 30.663 25.2584C30.4766 25.4324 30.2406 25.5318 29.9921 25.5318ZM22.5997 22.0902C25.246 22.0902 27.7309 23.1215 29.5945 24.9851C29.8057 25.1963 30.1785 25.1963 30.3897 24.9851C30.6133 24.7615 30.6133 24.4136 30.3897 24.1899C28.3024 22.1027 25.5318 20.9596 22.5873 20.9596C19.6427 20.9596 16.8721 22.1027 14.7848 24.1899C14.5612 24.4136 14.5612 24.7615 14.7848 24.9851C15.0085 25.2087 15.3563 25.2087 15.58 24.9851C17.4685 23.1215 19.9533 22.0902 22.5997 22.0902Z" fill="#0A3474"/>
<path d="M33.3964 21.7797C33.21 21.7797 33.0113 21.7052 32.8622 21.5561C27.1967 15.9031 17.9903 15.9031 12.3373 21.5561C12.0391 21.8543 11.567 21.8543 11.2813 21.5561C10.9831 21.2579 10.9831 20.7858 11.2813 20.5C17.5306 14.2506 27.6813 14.2506 33.9306 20.5C34.2288 20.7982 34.2288 21.2703 33.9306 21.5561C33.7691 21.7052 33.5828 21.7797 33.3964 21.7797Z" fill="#0A3474"/>
<path d="M33.3962 21.966C33.1478 21.966 32.9117 21.8666 32.7378 21.6927C27.1469 16.1018 18.0647 16.1018 12.4738 21.6927C12.1135 22.053 11.5172 22.053 11.1444 21.6927C10.9705 21.5188 10.8711 21.2827 10.8711 21.0342C10.8711 20.7857 10.9705 20.5497 11.1444 20.3757C14.2008 17.3194 18.2635 15.6421 22.5996 15.6421C26.9356 15.6421 30.9984 17.3194 34.0547 20.3757C34.2287 20.5497 34.3281 20.7857 34.3281 21.0342C34.3281 21.2827 34.2287 21.5188 34.0547 21.6927C33.8808 21.8666 33.6447 21.966 33.3962 21.966ZM22.5996 17.1206C26.3641 17.1206 30.1287 18.5494 32.9987 21.4194C33.2099 21.6306 33.5826 21.6306 33.7938 21.4194C33.9056 21.3075 33.9553 21.1709 33.9553 21.0218C33.9553 20.8727 33.8932 20.7236 33.7938 20.6242C30.812 17.6424 26.8362 15.99 22.5996 15.99C18.3629 15.99 14.3872 17.63 11.4053 20.6242C11.2935 20.7236 11.2438 20.8727 11.2438 21.0218C11.2438 21.1709 11.3059 21.3075 11.4053 21.4194C11.629 21.643 11.9769 21.643 12.2005 21.4194C15.0705 18.5618 18.835 17.1206 22.5996 17.1206Z" fill="#0A3474"/>
</g>
<defs>
<clipPath id="clip0">
<rect width="45.1994" height="51.25" fill="white"/>
</clipPath>
</defs>
</svg>
