<svg width="58" height="34" viewBox="0 0 58 34" fill="none" xmlns="http://www.w3.org/2000/svg">
<path d="M56.9427 17.443V23.0995C56.9427 29.9757 49.623 32.0364 47.5185 32.4885C45.7448 32.11 38.0942 30.0703 38.0942 23.11V17.443L47.5185 15.4453L56.9427 17.443Z" stroke="#0A3474" stroke-width="1.4" stroke-miterlimit="10" stroke-linecap="round" stroke-linejoin="round"/>
<path d="M41.7339 23.0996L45.1488 26.0552" stroke="#0A3474" stroke-width="1.4" stroke-miterlimit="10" stroke-linecap="round" stroke-linejoin="round"/>
<path d="M53.3289 20.3662L45.1489 26.0552" stroke="#0A3474" stroke-width="1.4" stroke-miterlimit="10" stroke-linecap="round" stroke-linejoin="round"/>
<path d="M50.7743 0H2.87227C1.28392 0 0 1.01992 0 2.28167V6.08796C0 7.34971 1.28392 8.36963 2.87227 8.36963H50.7743C52.3627 8.36963 53.6466 7.34971 53.6466 6.08796V2.28167C53.6466 1.01992 52.3627 0 50.7743 0ZM51.7406 6.08796C51.7406 6.50854 51.317 6.84501 50.7876 6.84501H2.87227C2.34282 6.84501 1.91926 6.50854 1.91926 6.08796V2.28167C1.91926 1.86109 2.34282 1.52462 2.87227 1.52462H50.7743C51.3038 1.52462 51.7273 1.86109 51.7273 2.28167V6.08796H51.7406Z" fill="#0A3474"/>
<path d="M4.79138 3.04883C4.26194 3.04883 3.83838 3.38556 3.83838 3.80648V4.56413C3.83838 4.98504 4.26194 5.32178 4.79138 5.32178C5.32083 5.32178 5.74438 4.98504 5.74438 4.56413V3.80648C5.74438 3.38556 5.32083 3.04883 4.79138 3.04883Z" fill="#0A3474"/>
<path d="M8.6166 3.04883C8.08714 3.04883 7.66357 3.38556 7.66357 3.80648V4.56413C7.66357 4.98504 8.08714 5.32178 8.6166 5.32178C9.14606 5.32178 9.56962 4.98504 9.56962 4.56413V3.80648C9.58286 3.38556 9.14606 3.04883 8.6166 3.04883Z" fill="#0A3474"/>
<path d="M12.4555 3.80566C11.926 3.80566 11.5024 4.14225 11.5024 4.56299C11.5024 4.98372 11.926 5.32031 12.4555 5.32031C12.9849 5.32031 13.4085 4.98372 13.4085 4.56299C13.4085 4.14225 12.9849 3.80566 12.4555 3.80566Z" fill="#0A3474"/>
<path d="M48.8549 3.04883H39.2719C38.7424 3.04883 38.3188 3.38536 38.3188 3.80603C38.3188 4.2267 38.7424 4.56323 39.2719 4.56323H48.8549C49.3844 4.56323 49.8079 4.2267 49.8079 3.80603C49.8079 3.38536 49.3844 3.04883 48.8549 3.04883Z" fill="#0A3474"/>
<path d="M50.7743 9.89307H2.87227C1.28392 9.89307 0 10.913 0 12.1749V15.9814C0 17.2432 1.28392 18.2632 2.87227 18.2632H34.4937C35.0232 18.2632 35.4467 17.9267 35.4467 17.5061C35.4467 17.0855 35.0232 16.749 34.4937 16.749H2.87227C2.34282 16.749 1.91926 16.4125 1.91926 15.9919V12.1854C1.91926 11.7648 2.34282 11.4283 2.87227 11.4283H50.7743C51.3038 11.4283 51.7274 11.7648 51.7274 12.1854V13.7101C51.7274 14.1307 52.1509 14.4672 52.6804 14.4672C53.2098 14.4672 53.6334 14.1307 53.6334 13.7101V12.1854C53.6466 10.913 52.3627 9.89307 50.7743 9.89307Z" fill="#0A3474"/>
<path d="M3.83838 13.7008V14.4582C3.83838 14.879 4.26194 15.2156 4.79138 15.2156C5.32083 15.2156 5.74438 14.879 5.74438 14.4582V13.7008C5.74438 13.28 5.32083 12.9434 4.79138 12.9434C4.26194 12.9434 3.83838 13.28 3.83838 13.7008Z" fill="#0A3474"/>
<path d="M8.6166 12.9326C8.08714 12.9326 7.66357 13.2692 7.66357 13.6899V14.4473C7.66357 14.868 8.08714 15.2046 8.6166 15.2046C9.14606 15.2046 9.56962 14.868 9.56962 14.4473V13.6899C9.58286 13.2797 9.14606 12.9326 8.6166 12.9326Z" fill="#0A3474"/>
<path d="M11.5024 14.4567C11.5024 14.8772 11.926 15.2136 12.4555 15.2136C12.9849 15.2136 13.4085 14.8772 13.4085 14.4567C13.4085 14.0361 12.9849 13.6997 12.4555 13.6997C11.926 13.6997 11.5024 14.0361 11.5024 14.4567Z" fill="#0A3474"/>
<path d="M35.1291 26.6321H2.87227C2.34282 26.6321 1.91926 26.2957 1.91926 25.8751V22.0689C1.91926 21.6484 2.34282 21.3119 2.87227 21.3119H34.4937C35.0232 21.3119 35.4468 20.9755 35.4468 20.5549C35.4468 20.1343 35.0232 19.7979 34.4937 19.7979H2.87227C1.28392 19.7979 0 20.8177 0 22.0795V25.8856C0 27.1473 1.28392 28.1672 2.87227 28.1672H35.1291C35.6585 28.1672 36.0821 27.8308 36.0821 27.4102C36.0821 26.9896 35.6585 26.6321 35.1291 26.6321Z" fill="#0A3474"/>
<path d="M3.83838 23.5938V24.3512C3.83838 24.772 4.26194 25.1086 4.79138 25.1086C5.32083 25.1086 5.74438 24.772 5.74438 24.3512V23.5938C5.74438 23.1731 5.32083 22.8364 4.79138 22.8364C4.26194 22.8364 3.83838 23.1731 3.83838 23.5938Z" fill="#0A3474"/>
<path d="M8.6166 22.8252C8.08714 22.8252 7.66357 23.1619 7.66357 23.5827V24.3402C7.66357 24.761 8.08714 25.0977 8.6166 25.0977C9.14606 25.0977 9.56962 24.761 9.56962 24.3402V23.5827C9.58286 23.1724 9.14606 22.8252 8.6166 22.8252Z" fill="#0A3474"/>
<path d="M11.5024 24.3514C11.5024 24.7724 11.926 25.1091 12.4555 25.1091C12.9849 25.1091 13.4085 24.7724 13.4085 24.3514C13.4085 23.9305 12.9849 23.5938 12.4555 23.5938C11.926 23.5938 11.5024 23.9305 11.5024 24.3514Z" fill="#0A3474"/>
</svg>
