<svg width="24" height="24" viewBox="0 0 24 24" fill="none" xmlns="http://www.w3.org/2000/svg">
<path fill-rule="evenodd" clip-rule="evenodd" d="M1 12C1 5.92487 5.92487 1 12 1C18.0751 1 23 5.92487 23 12C23 18.0751 18.0751 23 12 23C5.92487 23 1 18.0751 1 12ZM15.5356 8.46477C15.9261 8.85529 15.9261 9.48846 15.5356 9.87898L13.4143 12.0003L15.5356 14.1216C15.9261 14.5121 15.9261 15.1453 15.5356 15.5358C15.1451 15.9264 14.5119 15.9264 14.1214 15.5358L12.0001 13.4145L9.87874 15.5358C9.48821 15.9264 8.85505 15.9264 8.46452 15.5358C8.074 15.1453 8.074 14.5121 8.46452 14.1216L10.5858 12.0003L8.46452 9.87898C8.074 9.48846 8.074 8.85529 8.46452 8.46477C8.85505 8.07424 9.48821 8.07424 9.87874 8.46477L12.0001 10.5861L14.1214 8.46477C14.5119 8.07424 15.1451 8.07424 15.5356 8.46477Z" fill="black"/>
</svg>
