<svg width="55" height="55" viewBox="0 0 55 55" fill="none" xmlns="http://www.w3.org/2000/svg">
<path d="M39.4937 0C35.3517 0 31.4567 1.61358 28.5269 4.54338L4.54235 28.5261C-1.50305 34.5733 -1.50305 44.4121 4.54235 50.4593C7.47134 53.3873 11.3655 55 15.5078 55C19.6502 55 23.5448 53.3872 26.4737 50.4593L28.267 48.6665L27.1486 48.7199C27.143 48.7203 27.0825 48.7229 26.9771 48.7229C26.459 48.7229 24.6375 48.6552 22.9553 47.7869L22.6998 47.6549L22.4792 47.8389C20.5345 49.465 18.0583 50.3603 15.5077 50.3603C12.6001 50.3603 9.86942 49.2319 7.81843 47.1826C5.76781 45.1321 4.63821 42.401 4.63821 39.4924C4.63821 36.5839 5.76781 33.8533 7.81843 31.8022L31.803 7.81955C33.8536 5.76902 36.5851 4.63932 39.4937 4.63932C42.4019 4.63932 45.1329 5.76902 47.1839 7.81955C51.4196 12.0587 51.4196 18.9564 47.1843 23.1955L32.2049 38.1397C31.4524 38.8936 30.4104 39.3089 29.2703 39.3089C28.0321 39.3089 26.8335 38.8193 25.9807 37.9648C25.1622 37.1472 24.6935 36.0076 24.694 34.8367C24.694 33.6926 25.1275 32.6306 25.9131 31.847L39.2615 18.5493L35.9848 15.2731L22.6351 28.5692C20.9578 30.2465 20.0447 32.4979 20.0633 34.9084C20.082 37.3086 21.0198 39.5577 22.7037 41.2414C24.4166 42.9539 26.8088 43.936 29.2681 43.936C31.6502 43.936 33.8579 43.0408 35.4844 41.4159L50.4599 26.473C56.504 20.425 56.504 10.587 50.4599 4.54338C47.5306 1.61358 43.6356 0 39.4937 0Z" fill="black" fill-opacity="0.06"/>
</svg>
