<svg width="531" height="38" viewBox="0 0 531 38" fill="none" xmlns="http://www.w3.org/2000/svg">
<path d="M10.6731 6.34972H0.241455V0.921143H27.4797V6.34972H17.048V37.1278H10.6731V6.34972Z" fill="black" stroke="black" stroke-miterlimit="10"/>
<path d="M64.57 27.2885H52.448L49.6469 37.0793H43.1271L54.8627 0.921143H62.3484L74.084 37.0793H67.371L64.57 27.2885ZM63.1211 22.2477L61.8655 17.837C61.2859 15.8982 60.7064 13.9594 60.1751 11.9237C59.6439 9.88798 59.1127 7.90073 58.5814 5.91349H58.34C57.8087 7.9492 57.3258 9.98492 56.7945 11.9722C56.2633 13.9594 55.732 15.9467 55.1525 17.8854L53.8968 22.2961H63.1211V22.2477Z" fill="black" stroke="black" stroke-miterlimit="10"/>
<path d="M95.0922 0.921143H106.635C108.518 0.921143 110.208 1.06655 111.802 1.40584C113.348 1.69665 114.7 2.22982 115.859 2.90839C117.018 3.58696 117.936 4.50788 118.563 5.62267C119.191 6.78594 119.529 8.14308 119.529 9.83951C119.529 11.5844 119.046 13.1839 118.032 14.638C117.018 16.0921 115.473 17.1099 113.396 17.6916V17.9339C116.004 18.3701 117.984 19.291 119.384 20.7451C120.785 22.1507 121.461 24.0895 121.461 26.513C121.461 28.3064 121.123 29.9058 120.399 31.2145C119.722 32.5232 118.757 33.638 117.501 34.5104C116.294 35.3829 114.796 36.0615 113.106 36.4977C111.416 36.9339 109.581 37.1278 107.601 37.1278H95.1405V0.921143H95.0922ZM106.055 15.8982C108.566 15.8982 110.402 15.4135 111.561 14.4926C112.671 13.5717 113.251 12.263 113.251 10.5666C113.251 8.91859 112.671 7.70686 111.464 6.97982C110.305 6.25278 108.518 5.86502 106.152 5.86502H101.467V15.8982H106.055ZM106.876 32.087C109.532 32.087 111.561 31.6023 113.01 30.5844C114.458 29.5666 115.183 28.064 115.183 25.9798C115.183 24.0895 114.507 22.6839 113.106 21.8115C111.706 20.8905 109.629 20.4543 106.924 20.4543H101.515V32.087H106.876Z" fill="black" stroke="black" stroke-miterlimit="10"/>
<path d="M144.353 0.921143H150.728V21.7145C150.728 23.6533 150.921 25.3012 151.259 26.6584C151.597 28.0155 152.08 29.0819 152.756 29.9058C153.384 30.7298 154.157 31.3114 155.026 31.6507C155.895 31.99 156.909 32.1839 158.02 32.1839C159.131 32.1839 160.145 31.99 161.063 31.6507C161.98 31.3114 162.753 30.7298 163.429 29.9058C164.105 29.0819 164.588 28.0155 164.975 26.6584C165.361 25.3012 165.506 23.6533 165.506 21.7145V0.921143H171.639V21.2298C171.639 24.2349 171.35 26.7553 170.722 28.8395C170.094 30.9237 169.176 32.6201 168.017 33.9773C166.81 35.2859 165.409 36.2553 163.719 36.8854C162.029 37.5155 160.145 37.8063 158.068 37.8063C155.992 37.8063 154.108 37.5155 152.418 36.8854C150.728 36.2553 149.327 35.2859 148.12 33.9773C146.912 32.6686 145.995 30.9237 145.367 28.8395C144.739 26.7553 144.401 24.2349 144.401 21.2298V0.921143H144.353Z" fill="black" stroke="black" stroke-miterlimit="10"/>
<path d="M197.187 0.921143H203.562V31.6992H218.533V37.1278H197.139V0.921143H197.187Z" fill="black" stroke="black" stroke-miterlimit="10"/>
<path d="M258.135 27.2885H246.013L243.212 37.0793H236.692L248.428 0.921143H255.914L267.649 37.0793H260.936L258.135 27.2885ZM256.686 22.2477L255.431 17.837C254.851 15.8982 254.272 13.9594 253.74 11.9237C253.209 9.88798 252.678 7.90073 252.147 5.91349H251.905C251.374 7.9492 250.891 9.98492 250.36 11.9722C249.828 13.9594 249.297 15.9467 248.718 17.8854L247.462 22.2961H256.686V22.2477Z" fill="black" stroke="black" stroke-miterlimit="10"/>
<path d="M317.779 28.0638C319.083 29.2755 320.532 30.2449 322.174 31.0204C323.816 31.7959 325.458 32.1352 327.148 32.1352C329.225 32.1352 330.77 31.699 331.833 30.875C332.895 30.051 333.426 28.8877 333.426 27.4821C333.426 26.7551 333.282 26.125 332.992 25.5918C332.702 25.0587 332.316 24.6224 331.833 24.2347C331.35 23.8469 330.77 23.5076 330.046 23.1683C329.37 22.8291 328.645 22.4898 327.824 22.1505L322.85 19.9694C321.981 19.5816 321.111 19.1454 320.242 18.5638C319.373 18.0306 318.6 17.352 317.876 16.5765C317.199 15.801 316.62 14.8801 316.185 13.8622C315.751 12.8444 315.557 11.6326 315.557 10.324C315.557 8.86988 315.847 7.56121 316.475 6.301C317.103 5.08927 317.924 3.97447 318.986 3.05356C320.049 2.13264 321.353 1.4056 322.802 0.872434C324.299 0.339271 325.892 0.0969238 327.679 0.0969238C329.756 0.0969238 331.784 0.533148 333.765 1.35713C335.696 2.18111 337.387 3.2959 338.787 4.70151L335.551 8.77294C334.392 7.80355 333.185 7.07651 331.929 6.49488C330.674 5.96172 329.273 5.6709 327.728 5.6709C325.989 5.6709 324.637 6.05866 323.574 6.7857C322.56 7.56121 322.029 8.57906 322.029 9.88774C322.029 10.5663 322.174 11.1964 322.512 11.6811C322.802 12.1658 323.236 12.602 323.768 12.9898C324.299 13.3775 324.927 13.7168 325.603 14.0561C326.279 14.3469 327.003 14.6862 327.776 14.977L332.702 17.0127C333.765 17.449 334.73 17.9821 335.6 18.5638C336.469 19.1454 337.242 19.824 337.87 20.5995C338.497 21.375 339.029 22.2474 339.367 23.2653C339.753 24.2831 339.898 25.4464 339.898 26.7551C339.898 28.2092 339.608 29.6148 339.029 30.9234C338.449 32.2321 337.58 33.3469 336.469 34.3163C335.358 35.2857 334.006 36.0612 332.412 36.6428C330.819 37.2245 328.983 37.5153 327.003 37.5153C324.589 37.5153 322.222 37.0306 319.952 36.1097C317.682 35.1888 315.702 33.8801 313.964 32.1837L317.779 28.0638Z" fill="black" stroke="black" stroke-miterlimit="10"/>
<path d="M363.079 0.921143H384.812V6.34972H369.454V15.6074H382.397V21.0359H369.454V31.6992H385.343V37.1278H363.079V0.921143Z" fill="black" stroke="black" stroke-miterlimit="10"/>
<path d="M409.249 0.921143H415.817L427.07 21.2783L430.74 28.9849H430.982C430.837 27.0946 430.644 25.1074 430.45 22.9262C430.257 20.7451 430.161 18.6609 430.161 16.6252V0.921143H436.294V37.0793H429.726L418.473 16.7222L414.803 9.01553H414.561C414.706 10.9543 414.9 12.9416 415.093 15.0257C415.286 17.1099 415.382 19.1941 415.382 21.2298V37.0308H409.249V0.921143Z" fill="black" stroke="black" stroke-miterlimit="10"/>
<path d="M463.194 28.0638C464.498 29.2755 465.947 30.2449 467.589 31.0204C469.231 31.7959 470.873 32.1352 472.563 32.1352C474.64 32.1352 476.186 31.699 477.248 30.875C478.31 30.051 478.842 28.8877 478.842 27.4821C478.842 26.7551 478.697 26.125 478.407 25.5918C478.117 25.0587 477.731 24.6224 477.248 24.2347C476.765 23.8469 476.186 23.5076 475.461 23.1683C474.785 22.8291 474.061 22.4898 473.24 22.1505L468.265 19.9694C467.396 19.5816 466.527 19.1454 465.657 18.5638C464.788 18.0306 464.015 17.352 463.291 16.5765C462.615 15.801 462.035 14.8801 461.601 13.8622C461.166 12.8444 460.973 11.6326 460.973 10.324C460.973 8.86988 461.262 7.56121 461.89 6.301C462.518 5.08927 463.339 3.97447 464.402 3.05356C465.464 2.13264 466.768 1.4056 468.217 0.872434C469.714 0.339271 471.308 0.0969238 473.095 0.0969238C475.171 0.0969238 477.2 0.533148 479.18 1.35713C481.112 2.18111 482.802 3.2959 484.202 4.70151L480.967 8.77294C479.808 7.80355 478.6 7.07651 477.345 6.49488C476.089 5.96172 474.688 5.6709 473.143 5.6709C471.404 5.6709 470.052 6.05866 468.99 6.7857C467.975 7.56121 467.444 8.57906 467.444 9.88774C467.444 10.5663 467.589 11.1964 467.927 11.6811C468.217 12.1658 468.652 12.602 469.183 12.9898C469.714 13.3775 470.342 13.7168 471.018 14.0561C471.694 14.3469 472.419 14.6862 473.191 14.977L478.117 17.0127C479.18 17.449 480.146 17.9821 481.015 18.5638C481.884 19.1454 482.657 19.824 483.285 20.5995C483.913 21.375 484.444 22.2474 484.782 23.2653C485.168 24.2831 485.313 25.4464 485.313 26.7551C485.313 28.2092 485.023 29.6148 484.444 30.9234C483.864 32.2321 482.995 33.3469 481.884 34.3163C480.774 35.2857 479.421 36.0612 477.828 36.6428C476.234 37.2245 474.399 37.5153 472.419 37.5153C470.004 37.5153 467.637 37.0306 465.367 36.1097C463.098 35.1888 461.118 33.8801 459.379 32.1837L463.194 28.0638Z" fill="black" stroke="black" stroke-miterlimit="10"/>
<path d="M508.495 0.921143H530.227V6.34972H514.918V15.6074H527.861V21.0359H514.918V31.6992H530.807V37.1278H508.543V0.921143H508.495Z" fill="black" stroke="black" stroke-miterlimit="10"/>
</svg>
