<svg width="42" height="42" viewBox="0 0 42 42" fill="none" xmlns="http://www.w3.org/2000/svg">
<path d="M12.25 24.5C13.1783 24.5 14.0685 24.1313 14.7249 23.4749C15.3813 22.8185 15.75 21.9283 15.75 21C15.75 20.0717 15.3813 19.1815 14.7249 18.5251C14.0685 17.8687 13.1783 17.5 12.25 17.5C11.3217 17.5 10.4315 17.8687 9.77513 18.5251C9.11875 19.1815 8.75 20.0717 8.75 21C8.75 21.9283 9.11875 22.8185 9.77513 23.4749C10.4315 24.1313 11.3217 24.5 12.25 24.5Z" fill="white"/>
<path d="M24.5 21C24.5 21.9283 24.1313 22.8185 23.4749 23.4749C22.8185 24.1313 21.9283 24.5 21 24.5C20.0717 24.5 19.1815 24.1313 18.5251 23.4749C17.8687 22.8185 17.5 21.9283 17.5 21C17.5 20.0717 17.8687 19.1815 18.5251 18.5251C19.1815 17.8687 20.0717 17.5 21 17.5C21.9283 17.5 22.8185 17.8687 23.4749 18.5251C24.1313 19.1815 24.5 20.0717 24.5 21Z" fill="white"/>
<path d="M29.75 24.5C30.6783 24.5 31.5685 24.1313 32.2249 23.4749C32.8813 22.8185 33.25 21.9283 33.25 21C33.25 20.0717 32.8813 19.1815 32.2249 18.5251C31.5685 17.8687 30.6783 17.5 29.75 17.5C28.8217 17.5 27.9315 17.8687 27.2751 18.5251C26.6187 19.1815 26.25 20.0717 26.25 21C26.25 21.9283 26.6187 22.8185 27.2751 23.4749C27.9315 24.1313 28.8217 24.5 29.75 24.5Z" fill="white"/>
<path fill-rule="evenodd" clip-rule="evenodd" d="M42 21C42 32.5972 32.5972 42 21 42C9.40275 42 0 32.5972 0 21C0 9.40275 9.40275 0 21 0C32.5972 0 42 9.40275 42 21ZM38.5 21C38.5 30.6652 30.6652 38.5 21 38.5C11.3348 38.5 3.5 30.6652 3.5 21C3.5 11.3348 11.3348 3.5 21 3.5C30.6652 3.5 38.5 11.3348 38.5 21Z" fill="white"/>
</svg>
