<svg width="24" height="24" viewBox="0 0 24 24" fill="none" xmlns="http://www.w3.org/2000/svg">
<path d="M11.9994 0C5.3715 0 0 5.3727 0 11.9994C0 17.0826 3.1626 21.4284 7.62724 23.1772C7.52154 22.2283 7.42786 20.7677 7.66808 19.7323C7.88669 18.7955 9.07582 13.7675 9.07582 13.7675C9.07582 13.7675 8.71668 13.048 8.71668 11.985C8.71668 10.3178 9.6836 9.07222 10.8883 9.07222C11.9129 9.07222 12.4066 9.84095 12.4066 10.7622C12.4066 11.7928 11.7508 13.3315 11.4132 14.7584C11.131 15.9523 12.0126 16.9265 13.1897 16.9265C15.3218 16.9265 16.9625 14.6779 16.9625 11.4313C16.9625 8.55813 14.8978 6.54982 11.9502 6.54982C8.53531 6.54982 6.5306 9.11065 6.5306 11.7568C6.5306 12.7873 6.92818 13.8936 7.42425 14.4954C7.46641 14.5407 7.49618 14.5961 7.51069 14.6563C7.52521 14.7164 7.52398 14.7793 7.50713 14.8389C7.41584 15.2173 7.21285 16.0328 7.17441 16.1998C7.12156 16.4196 7.00025 16.4664 6.77203 16.3607C5.27421 15.6629 4.33732 13.472 4.33732 11.7111C4.33732 7.92633 7.08673 4.45023 12.2661 4.45023C16.4292 4.45023 19.6639 7.41584 19.6639 11.3808C19.6639 15.5175 17.0562 18.8435 13.4372 18.8435C12.2204 18.8435 11.0781 18.2129 10.6866 17.467L9.93824 20.3185C9.66798 21.3611 8.93649 22.6679 8.44762 23.4655C9.59845 23.8208 10.7962 24.001 12.0006 24C18.6273 24 24 18.6273 24 12.0006C24 5.3739 18.6261 0 11.9994 0Z" fill="#467495"/>
</svg>
