<svg width="48" height="48" viewBox="0 0 48 48" fill="none" xmlns="http://www.w3.org/2000/svg">
<path d="M47.1094 47.1085C46.5156 47.7028 45.8047 48 44.9766 48C44.1484 48 43.4375 47.7028 42.8438 47.1085L33.5625 37.8182C29.8125 40.6021 25.625 41.9941 21 41.9941C18.1562 41.9941 15.4375 41.4389 12.8438 40.3284C10.25 39.218 8.01562 37.7243 6.14062 35.8475C4.26562 33.9707 2.77344 31.7419 1.66406 29.1613C0.554688 26.5806 0 23.8592 0 20.9971C0 18.1349 0.554688 15.4057 1.66406 12.8094C2.77344 10.2131 4.26562 7.98436 6.14062 6.12317C8.01562 4.26197 10.25 2.77615 12.8438 1.66569C15.4375 0.55523 18.1562 0 21 0C23.8438 0 26.5625 0.55523 29.1562 1.66569C31.75 2.77615 33.9844 4.26197 35.8594 6.12317C37.7344 7.98436 39.2266 10.2131 40.3359 12.8094C41.4453 15.4057 42 18.1271 42 20.9736C42 25.6344 40.6094 29.826 37.8281 33.5484L47.1094 42.8387C47.7031 43.433 48 44.1447 48 44.9736C48 45.8025 47.7031 46.5142 47.1094 47.1085ZM21 6.00587C18.2812 6.00587 15.7734 6.67058 13.4766 8C11.1797 9.32942 9.35938 11.1515 8.01562 13.4663C6.67188 15.781 6 18.2913 6 20.9971C6 23.7028 6.67188 26.2131 8.01562 28.5279C9.35938 30.8426 11.1797 32.6647 13.4766 33.9941C15.7734 35.3236 18.2812 35.9883 21 35.9883C23.7188 35.9883 26.2266 35.3236 28.5234 33.9941C30.8203 32.6647 32.6406 30.8426 33.9844 28.5279C35.3281 26.2131 36 23.7028 36 20.9971C36 18.2913 35.3281 15.781 33.9844 13.4663C32.6406 11.1515 30.8203 9.32942 28.5234 8C26.2266 6.67058 23.7188 6.00587 21 6.00587Z" fill="white"/>
</svg>
