<svg width="29" height="24" viewBox="0 0 29 24" fill="none" xmlns="http://www.w3.org/2000/svg">
<g clip-path="url(#clip0)">
<path d="M28.6682 2.84287C27.8699 4.06666 26.8904 5.10989 25.7299 5.97254C25.7413 6.2039 25.7471 6.4654 25.7471 6.75703C25.7471 8.3774 25.5178 9.99973 25.0594 11.624C24.6009 13.2483 23.9006 14.8031 22.9584 16.2882C22.0162 17.7734 20.8939 19.0892 19.5915 20.2355C18.2891 21.3818 16.7235 22.2958 14.8948 22.9775C13.066 23.6592 11.1061 24 9.01504 24C5.75156 24 2.74621 23.0921 -0.000999451 21.2762C0.486598 21.3321 0.954245 21.3601 1.40194 21.3601C4.12831 21.3601 6.56341 20.4947 8.70721 18.7638C7.43602 18.7398 6.29758 18.3365 5.29187 17.554C4.28617 16.7715 3.59407 15.7716 3.21557 14.5543C3.58969 14.6277 3.95894 14.6645 4.32331 14.6645C4.8478 14.6645 5.36388 14.594 5.87157 14.453C4.51497 14.173 3.38956 13.4766 2.49533 12.364C1.60113 11.2514 1.15404 9.9672 1.15404 8.51146V8.43643C1.98672 8.91157 2.87491 9.1643 3.8186 9.19464C3.01497 8.64251 2.3778 7.92252 1.90711 7.03466C1.43639 6.14681 1.20103 5.18599 1.20103 4.15222C1.20103 3.06193 1.46614 2.04666 1.99635 1.10642C3.47163 2.97214 5.25923 4.46327 7.35916 5.57983C9.45913 6.69641 11.712 7.31652 14.1177 7.44017C14.0151 6.99948 13.9637 6.5396 13.9635 6.06053C13.9635 4.38779 14.5379 2.95952 15.6867 1.77571C16.8356 0.591904 18.2215 0 19.8447 0C21.5441 0 22.9755 0.637688 24.1389 1.91306C25.4682 1.64172 26.7128 1.15093 27.8728 0.440688C27.4259 1.89013 26.5647 3.00827 25.2893 3.79512C26.4615 3.65157 27.5878 3.33415 28.6682 2.84287H28.6682Z" fill="#467495"/>
</g>
<defs>
<clipPath id="clip0">
<rect width="28.6692" height="24" fill="white"/>
</clipPath>
</defs>
</svg>
