<svg width="42" height="42" viewBox="0 0 42 42" fill="none" xmlns="http://www.w3.org/2000/svg">
<path d="M21 0C9.40313 0 0 9.40313 0 21C0 32.5969 9.40313 42 21 42C32.5969 42 42 32.5969 42 21C42 9.40313 32.5969 0 21 0ZM29.3438 26.0156H27.1453C26.6672 26.0156 26.2125 25.7859 25.9313 25.3969L21 18.5812L16.0687 25.3969C15.7875 25.7859 15.3375 26.0156 14.8547 26.0156H12.6562C12.3516 26.0156 12.1734 25.6687 12.3516 25.4203L20.6953 13.8891C20.8453 13.6828 21.15 13.6828 21.3 13.8891L29.6438 25.4203C29.8266 25.6687 29.6484 26.0156 29.3438 26.0156Z" fill="#467495"/>
</svg>
