<svg xmlns="http://www.w3.org/2000/svg" width="66" height="67" viewBox="0 0 66 67"><g><g><path fill="#00d089" d="M33 .007c18.228 0 33 15.036 33 33.521S51.228 66.993 33 66.993c-18.237 0-33-14.98-33-33.465C0 15.043 14.763.007 33 .007zm14.8 20.312c-.827 0-1.626.33-2.258.973l-16.054 16.28-7.432-7.537a3.19 3.19 0 0 0-4.58 0l-2.974 3.015c-1.263 1.28-1.263 3.352 0 4.642l9.282 9.347c.111.181.25.32.408.482l2.973 3.015a3.24 3.24 0 0 0 2.918.905 3.24 3.24 0 0 0 1.663-.905l2.973-3.015L53.095 28.95c1.264-1.29 1.264-3.363 0-4.642l-2.973-3.015a3.302 3.302 0 0 0-2.322-.973z"/></g></g></svg>