<svg xmlns="http://www.w3.org/2000/svg" width="55" height="55" viewBox="0 0 55 55"><g><g><path fill="#5eb6c4" d="M27.504.012c15.168 0 27.484 12.315 27.484 27.49 0 15.17-12.316 27.486-27.484 27.486C12.327 54.988.012 42.672.012 27.503.012 12.327 12.327.012 27.504.012zm-.008 2.797c-.67 0-1.34.048-1.995.102-.343.062-.725.11-1.1.148l-.397.047c-1.372.196-2.697.438-3.99.85 3.374-.24 6.843-.155 9.875 1.348.803 2.58 5.62.047 5.386 2.939.04.04.117.11.156.156-.07.061.063.584.148.147.834.944 2.588 2.886.749 2.644-2.44-.335-1.801 4.474-.047 5.339 1.668.905 2.611-.904.896-1.8-.234-2.246 3.75 1.386 1.996 2.595-.078.038-.133.102-.203.148.086-.32-.117-.016-.094.054-2.01 1.458-.872 4.865-1.652 7.134-1.38 3.079 3.469 1.714 2.744-.703-.88-2.221 3.687-1.207 2.697-2.79 2.775 1.473 2.51-2.48 1.348-3.796.546-2.112 1.965.249 1.294 1.402.101 1.083 1.052 1.332 1.8 1.646.04.023.079.023.149.046.655.303 1.052.716.35 1.95-.826 2.751-3.585 2.907-5.838 2.392-2.283.95-2.705 3.718-3.99 5.59-1.287 2.33-2.355 5.76-.055 7.832 2.206 2.105 4.723.273 6.54-1.153 3.492-.451 3.811 3.656 2.096 5.737-.062.305-.1.499-.1.654 3.678-4.31 5.939-9.852 5.939-15.964 0-.941-.102-1.886-.203-2.797-1.403.763-3.897-3.453-1.348-1.443.506-.03.818-.186 1.052-.405-.296-1.527-.686-3.015-1.247-4.434-.25-.305-.5-.585-.702-.748.008-.314-.023-.61-.046-.899v-.053C45.697 8.5 37.263 2.809 27.504 2.809zM17.176 6.1C13.41 9.32 7.658 14.377 5.35 19.117c-1.037 2.97-.865 5.964-.748 9.08 1.06 3.018 3.11 5.511 4.739 8.232 1.044 1.31.538 2.806.444 4.24-.015.008.016.048 0 .054-.039.866.063 1.7.803 2.44 1.403 1.81 3.469 3.197 4.24 5.442.008.014-.007.03 0 .046a24.52 24.52 0 0 0 5.434 2.449 11.67 11.67 0 0 0 2.946-.65v-.053c1.559-.561 3.056-1.395 4.342-2.346 2.151-2.61-1.871-4.676-4.046-3.935-2.51-1.676-4.334-4.24-7.179-5.488-2.315-2.245-7.53-.85-7.436-5.091.242-2.011-1.38-2.993-2.596-3.944-.935-3.11 4.763-4.263 4.84-.843 1.88-.1 2.542-3.366 4.693-3.84 1.123-.968 4.131.07 3.04-1.897 1.084-1.02 4.24-.998 2.697-3.398-.522-2.33-3.39-3.452-4.341-.795-2.588.701-1.544-4.942 1.099-4.193 1.91.109 1.66-1.551.498-2.09-.007-.086-.03-.124-.1-.054-.22-.086-.43-.156-.694-.148-2.596-1.442 2.595-5.09-.85-6.236zm7.335 3.844c-.102 0-.219.03-.304.046-1.17.234-.819 2.183.6.85.397-.18.6-.85 0-.85-.117-.023-.203-.054-.296-.046zm1.94.443c-1.706.22-3.421 1.863-1.847 3.492 1.146 1.411-1.629 4.31.998 5.045 1.06-2.33 3.913-4.18 3.196-7.04-.296-1.208-1.325-1.62-2.346-1.497zm-5.136 2.846c-.11.007-.219.062-.351.101.686 1.285-.912 2.924.304 4.038 1.388-.57 1.707-4.24.047-4.14zm14.319 5.885c-.328.023-.398.25.195.804-.546 1.3.927 1.378 1.45.498.116-.772-1.1-1.333-1.645-1.302zm-14.366 3.797c-.398.07-.491.318.343.895.101-.023.818-.187.405.25 1.294-.772-.101-1.263-.748-1.145zm-5.238 2.04c-.078-.007-.218.009-.452.102.031.032.062.086.101.103h.047c.242.06.483-.18.304-.204zm-5.09 6.94c-.335.093-.35.442.546.997.249.31.686.607 1.099.443.241-.685-.258-1.106-.795-1.294-.008-.038 0-.023 0-.047a2.404 2.404 0 0 0-.453-.1c-.163-.016-.288-.032-.397 0z"/></g></g></svg>