<svg width="26" height="26" viewBox="0 0 26 26" fill="none" xmlns="http://www.w3.org/2000/svg">
<g clip-path="url(#clip0)">
<path d="M19.5601 17.6433L25.7431 23.3874L23.2137 25.7699L16.7496 19.732C15.1687 20.548 13.3419 21.0049 11.4448 21.0049C5.43741 21.0049 0.554199 16.4683 0.554199 10.8874C0.554199 5.30645 5.43741 0.769897 11.4448 0.769897C17.4522 0.769897 22.3705 5.30645 22.3705 10.8874C22.3705 13.4984 21.2815 15.8809 19.5601 17.6433ZM4.17269 10.8874C4.17269 14.6407 7.40474 17.6433 11.4448 17.6433C15.4849 17.6433 18.7169 14.6407 18.7169 10.8874C18.7169 7.13413 15.4849 4.13152 11.4448 4.13152C7.40474 4.13152 4.17269 7.13413 4.17269 10.8874Z" fill="#03286C"/>
</g>
<defs>
<clipPath id="clip0">
<rect width="25.1889" height="25" fill="white" transform="translate(0.554199 0.769897)"/>
</clipPath>
</defs>
</svg>
