<svg width="28" height="28" viewBox="0 0 28 28" fill="none" xmlns="http://www.w3.org/2000/svg">
<path d="M0.256697 27.7445C0.427318 27.9151 0.651313 28 0.875307 28C1.0993 28 1.3233 27.9142 1.49479 27.7436L14 15.2233L26.5052 27.7436C26.6758 27.9151 26.8998 28 27.1247 28C27.3487 28 27.5727 27.9142 27.7433 27.7445C28.0854 27.4033 28.0854 26.8494 27.7442 26.5073L15.2512 14.0001L27.7433 1.49373C28.0845 1.15161 28.0845 0.597732 27.7424 0.256483C27.3994 -0.0856404 26.8464 -0.08564 26.5052 0.257359L13.9991 12.7777L1.49392 0.257359C1.1518 -0.084765 0.597939 -0.0847654 0.256697 0.256483C-0.08542 0.597732 -0.0854195 1.15161 0.255822 1.49373L12.747 14.0001L0.255822 26.5073C-0.0854195 26.8485 -0.08542 27.4033 0.256697 27.7445Z" fill="black"/>
</svg>
