<svg width="172" height="37" viewBox="0 0 172 37" fill="none" xmlns="http://www.w3.org/2000/svg">
<path d="M18.8153 37C29.2067 37 37.6306 29.0969 37.6306 19.3478C37.6306 9.59882 29.2067 1.69568 18.8153 1.69568C8.4239 1.69568 0 9.59882 0 19.3478C0 29.0969 8.4239 37 18.8153 37Z" fill="#006A69"/>
<path d="M28.5169 11.2798C26.3855 10.211 23.8131 10.6937 22.2696 12.2796C22.2329 12.2796 21.7184 12.9002 21.5346 13.245L20.6527 14.7964L19.4767 16.8651L16.3531 22.3124L16.3163 22.3469C15.1771 24.3121 12.4945 24.9671 10.6938 24.1052C10.1426 23.8639 9.73832 23.4846 9.40759 23.0364C9.22384 22.7951 8.81961 22.933 8.89311 23.2433C9.29734 25.4843 10.6203 27.4495 12.7517 28.4838C14.5156 29.3112 16.5001 29.3802 18.3743 28.7941C18.558 28.7251 18.7417 28.6561 18.9255 28.5872C19.0357 28.5527 19.146 28.4838 19.2195 28.4493C19.3297 28.3803 19.4767 28.3459 19.587 28.2769C20.6527 27.7253 21.5714 26.9668 22.3064 26.0704C22.3431 26.0014 22.4166 25.9325 22.4534 25.8635C22.5636 25.7256 22.6738 25.5532 22.7841 25.3808C22.8943 25.2429 23.0046 25.0706 23.0781 24.8982L27.7452 16.7961L27.8187 16.6582L30.3543 12.2107L28.5169 11.2798ZM27.3409 13.6587C26.8999 13.6587 26.5692 13.3484 26.5692 12.9347C26.5692 12.521 26.8999 12.2107 27.3409 12.2107C27.7819 12.2107 28.1126 12.521 28.1126 12.9347C28.0759 13.3484 27.7452 13.6587 27.3409 13.6587Z" fill="white"/>
<path d="M23.8864 23.5196L23.2249 24.6918L17.3451 21.6578L17.0144 21.4855L11.2449 18.486C8.67245 17.1759 7.75373 14.1419 9.15018 11.763L9.81165 10.6252L19.6603 15.7278L21.7917 16.8311C24.3641 18.1067 25.2828 21.1407 23.8864 23.5196Z" fill="#D85C25"/>
<path d="M56.2621 12.7973L59.3123 6.55697C59.496 6.14325 59.937 5.90191 60.4147 5.90191H62.0317C62.9504 5.90191 63.5384 6.79831 63.1341 7.5568L56.9971 19.141C56.2254 20.6235 55.3434 21.6578 54.3879 22.3129C53.4325 22.968 52.33 23.2783 51.0071 23.2783C50.0884 23.2783 49.1696 23.1403 48.2877 22.8301C47.6262 22.5887 47.3322 21.8302 47.6629 21.2441L48.1039 20.4856C48.3612 20.0029 48.9859 19.7616 49.5371 19.8995C49.9414 20.0374 50.3823 20.0719 50.8233 20.0719C51.4481 20.0719 52.036 19.865 52.5138 19.4168C52.918 19.0721 52.9915 18.5204 52.7343 18.0722L46.7442 7.5568C46.3032 6.79831 46.8912 5.86743 47.8099 5.86743H49.5371C49.9781 5.86743 50.4191 6.10877 50.6028 6.48801L54.0572 12.8318C54.5349 13.6937 55.8211 13.6592 56.2621 12.7973Z" fill="#D85C25"/>
<path d="M81.8758 23.3127C79.5974 23.3127 77.6497 22.6232 76.0328 21.2786C74.6731 20.1409 73.7544 18.6928 73.2766 16.969C73.1296 16.4518 72.6519 16.0726 72.1007 16.0726H71.8067C71.1452 16.0726 70.594 16.5897 70.594 17.2103V21.8647C70.594 22.4853 70.0428 23.0024 69.3813 23.0024H67.8011C67.1396 23.0024 66.5884 22.4853 66.5884 21.8647V7.03965C66.5884 6.41907 67.1396 5.90191 67.8011 5.90191H69.3813C70.0428 5.90191 70.594 6.41907 70.594 7.03965V11.5906C70.594 12.2112 71.1452 12.7283 71.8067 12.7283H72.1374C72.6887 12.7283 73.1664 12.3836 73.3134 11.8664C73.7911 10.177 74.7098 8.76349 76.1063 7.62576C77.7232 6.28116 79.6341 5.6261 81.9126 5.6261C84.485 5.6261 86.6164 6.48802 88.2701 8.17739C89.9238 9.86675 90.769 11.9698 90.769 14.4867C90.769 16.969 89.9238 19.0721 88.2701 20.7959C86.6164 22.5198 84.485 23.3127 81.8758 23.3127ZM81.9493 19.865C83.3458 19.865 84.485 19.3479 85.3669 18.3136C86.2489 17.2793 86.6899 16.0036 86.6899 14.4177C86.6899 12.9007 86.2489 11.5906 85.3302 10.5563C84.4482 9.52199 83.309 9.00483 81.9126 9.00483C80.5161 9.00483 79.3769 9.52198 78.4949 10.5218C77.613 11.5561 77.172 12.8318 77.172 14.3832C77.172 15.9002 77.613 17.2103 78.4949 18.2446C79.3769 19.3479 80.5529 19.865 81.9493 19.865Z" fill="#D85C25"/>
<path d="M98.6335 21.8647V10.4873C98.6335 9.86675 98.0823 9.3496 97.4208 9.3496H94.2972C93.6357 9.3496 93.0845 8.83244 93.0845 8.21186V7.00517C93.0845 6.38458 93.6357 5.86743 94.2972 5.86743H106.975C107.637 5.86743 108.188 6.38458 108.188 7.00517V8.21186C108.188 8.83244 107.637 9.3496 106.975 9.3496H103.852C103.19 9.3496 102.639 9.86675 102.639 10.4873V21.8647C102.639 22.4853 102.088 23.0024 101.426 23.0024H99.8462C99.1848 23.0024 98.6335 22.4853 98.6335 21.8647Z" fill="#D85C25"/>
<path d="M111.275 21.8646V7.03959C111.275 6.41901 111.826 5.90186 112.488 5.90186H114.068C114.729 5.90186 115.281 6.41901 115.281 7.03959V11.5216C115.281 12.1422 115.832 12.6593 116.493 12.6593H121.454C122.116 12.6593 122.667 12.1422 122.667 11.5216V7.03959C122.667 6.41901 123.218 5.90186 123.88 5.90186H125.46C126.121 5.90186 126.673 6.41901 126.673 7.03959V21.8646C126.673 22.4852 126.121 23.0024 125.46 23.0024H123.88C123.218 23.0024 122.667 22.4852 122.667 21.8646V17.2792C122.667 16.6586 122.116 16.1415 121.454 16.1415H116.493C115.832 16.1415 115.281 16.6586 115.281 17.2792V21.8646C115.281 22.4852 114.729 23.0024 114.068 23.0024H112.488C111.826 23.0024 111.275 22.4852 111.275 21.8646Z" fill="#D85C25"/>
<path d="M131.083 21.8646V7.03959C131.083 6.41901 131.634 5.90186 132.295 5.90186H133.875C134.537 5.90186 135.088 6.41901 135.088 7.03959V10.5907C135.088 11.2113 135.639 11.7284 136.301 11.7284H138.983C141.078 11.7284 142.695 12.2456 143.871 13.2454C145.047 14.2453 145.635 15.5899 145.635 17.2792C145.635 19.0375 145.01 20.4511 143.761 21.4854C142.511 22.5197 140.821 23.0369 138.69 23.0369H132.258C131.597 23.0024 131.083 22.4852 131.083 21.8646ZM138.616 14.9348H136.301C135.639 14.9348 135.088 15.4519 135.088 16.0725V18.4514C135.088 19.072 135.639 19.5892 136.301 19.5892H138.653C140.637 19.5892 141.666 18.7962 141.666 17.1758C141.666 15.6933 140.637 14.9348 138.616 14.9348ZM147.656 21.8646V7.03959C147.656 6.41901 148.207 5.90186 148.869 5.90186H150.449C151.111 5.90186 151.662 6.41901 151.662 7.03959V21.8646C151.662 22.4852 151.111 23.0024 150.449 23.0024H148.906C148.207 23.0024 147.656 22.4852 147.656 21.8646Z" fill="#D85C25"/>
<path d="M171.763 7.03959V21.8646C171.763 22.4852 171.212 23.0024 170.551 23.0024H169.007C168.346 23.0024 167.794 22.4852 167.794 21.8646V15.5554C167.794 14.4176 166.251 13.9694 165.553 14.9348L160.151 22.5197C159.93 22.83 159.563 23.0369 159.122 23.0369H157.211C156.549 23.0369 155.998 22.5197 155.998 21.8991V7.07407C155.998 6.45349 156.549 5.93633 157.211 5.93633H158.754C159.416 5.93633 159.967 6.45349 159.967 7.07407V13.4178C159.967 14.5555 161.51 15.0037 162.209 14.0384L167.647 6.41901C167.868 6.10872 168.235 5.90186 168.64 5.90186H170.514C171.249 5.90186 171.763 6.41901 171.763 7.03959Z" fill="#D85C25"/>
<path d="M166.949 3.86774C166.178 4.5228 165.185 4.83309 164.009 4.83309C162.797 4.83309 161.841 4.5228 161.069 3.86774C160.629 3.48849 160.298 3.04029 160.041 2.48866C159.747 1.79912 160.151 1.04063 160.922 0.902726L161.033 0.868249C161.547 0.799296 162.025 1.00616 162.282 1.41988C162.686 2.04046 163.238 2.35075 164.009 2.35075C164.781 2.35075 165.332 2.04046 165.737 1.41988C165.994 1.00616 166.472 0.764819 166.986 0.868249L167.096 0.902726C167.868 1.04063 168.309 1.79912 167.978 2.48866C167.721 3.04029 167.39 3.48849 166.949 3.86774Z" fill="#D85C25"/>
<path d="M49.3535 33.5848V29.3097H47.6631V28.827H51.6319V29.3097H49.9415V33.5848H49.3535Z" fill="#006A69"/>
<path d="M60.3045 32.9317C59.8268 33.4144 59.202 33.6557 58.4303 33.6557C57.6953 33.6557 57.0706 33.4144 56.5929 32.9317C56.1152 32.449 55.8579 31.8629 55.8579 31.2079C55.8579 30.5183 56.1152 29.9667 56.5929 29.484C57.0706 29.0013 57.6953 28.76 58.4671 28.76C59.202 28.76 59.8268 29.0013 60.3045 29.484C60.7822 29.9667 61.0395 30.5528 61.0395 31.2079C61.0395 31.8629 60.7822 32.449 60.3045 32.9317ZM57.0339 32.5869C57.4014 32.9662 57.8791 33.173 58.4671 33.173C59.055 33.173 59.496 33.0007 59.9003 32.6214C60.2677 32.2422 60.4515 31.794 60.4515 31.2423C60.4515 30.6907 60.2677 30.2425 59.9003 29.8633C59.5328 29.484 59.055 29.2772 58.4671 29.2772C57.8791 29.2772 57.4014 29.4495 57.0339 29.8288C56.6664 30.208 56.4826 30.6562 56.4826 31.2079C56.4826 31.7595 56.6664 32.2077 57.0339 32.5869Z" fill="#006A69"/>
<path d="M65.6333 33.5856V28.8278H67.8015C68.3894 28.8278 68.8304 28.9657 69.1244 29.2415C69.3449 29.4483 69.4552 29.7242 69.4552 30C69.4552 30.5171 69.1979 30.8964 68.6467 31.1032C69.3817 31.3101 69.7491 31.6893 69.7491 32.2754C69.7491 32.6892 69.5654 32.9995 69.2347 33.2408C68.9039 33.4821 68.4629 33.5856 67.9117 33.5856H65.6333ZM66.2213 30.9308H67.728C68.0955 30.9308 68.3527 30.8619 68.5732 30.724C68.7937 30.5861 68.9039 30.3447 68.9039 30.1034C68.9039 29.8621 68.7937 29.6897 68.6099 29.5518C68.4262 29.4139 68.1322 29.3449 67.7647 29.3449H66.2213V30.9308ZM66.2213 33.1029H67.9117C68.2792 33.1029 68.6099 33.0339 68.8304 32.8616C69.0509 32.7236 69.1612 32.4823 69.1612 32.241C69.1612 31.9652 69.0509 31.7928 68.8304 31.6204C68.6099 31.448 68.2792 31.4135 67.8382 31.4135H66.2213V33.1029Z" fill="#006A69"/>
<path d="M73.8281 33.5854L76.1433 28.7931H76.6945L79.0097 33.5854H78.3482L77.7602 32.3442H75.0041L74.4161 33.5854H73.8281ZM75.2246 31.8271H77.5398L76.4005 29.4137L75.2246 31.8271Z" fill="#006A69"/>
<path d="M83.3462 33.5856V28.8278H85.2571C85.8451 28.8278 86.2861 28.9657 86.6536 29.2415C86.9843 29.5173 87.168 29.8965 87.168 30.3447C87.168 30.8274 86.9843 31.2067 86.6168 31.4825C86.2493 31.7583 85.7716 31.8962 85.1836 31.8962H83.9709V33.5856H83.3462ZM83.9342 31.4135H85.1836C85.5878 31.4135 85.9553 31.3101 86.1758 31.1377C86.4331 30.9308 86.5433 30.6895 86.5433 30.3792C86.5433 30.0345 86.4331 29.7931 86.1758 29.6207C85.9186 29.4483 85.5878 29.3449 85.1836 29.3449H83.8974V31.4135H83.9342Z" fill="#006A69"/>
<path d="M91.5776 33.5856V28.8278H92.1656V30.655H93.4518C94.0398 30.655 94.5175 30.7585 94.885 30.9998C95.2525 31.2411 95.4363 31.5859 95.4363 32.0686C95.4363 32.5513 95.2525 32.896 94.9218 33.1718C94.591 33.4477 94.1133 33.5856 93.5621 33.5856H91.5776ZM92.1656 33.1029H93.5253C93.9296 33.1029 94.2603 33.0339 94.4808 32.8616C94.7013 32.6892 94.8483 32.4478 94.8483 32.1031C94.8483 31.7928 94.738 31.5859 94.4808 31.4135C94.2603 31.2411 93.8928 31.1722 93.4886 31.1722H92.1656V33.1029ZM96.061 33.5856V28.8278H96.649V33.5856H96.061Z" fill="#006A69"/>
<path d="M106.351 34.6197V33.0682H106.865C107.38 32.3097 107.637 31.172 107.637 29.6205V28.7931H110.944V33.0682H111.606L111.532 34.6197H111.054V33.5509H106.939L106.828 34.6197H106.351ZM107.527 33.1027H110.393V29.3102H108.188V29.9308C108.188 30.5514 108.115 31.172 108.004 31.7236C107.894 32.3097 107.747 32.7579 107.527 33.1027Z" fill="#006A69"/>
<path d="M115.758 33.62C115.538 33.62 115.317 33.5856 115.097 33.5166L115.207 33.0684C115.317 33.1029 115.464 33.1374 115.648 33.1374C115.758 33.1374 115.832 33.1374 115.905 33.1029C115.979 33.0684 116.089 32.9995 116.162 32.8616C116.273 32.7236 116.346 32.5513 116.42 32.3099C116.493 32.0686 116.53 31.7238 116.603 31.2756C116.64 30.8274 116.677 30.3103 116.677 29.6897V28.8278H119.948V33.5856H119.36V29.3104H117.191V29.8276C117.191 30.4826 117.155 31.0343 117.118 31.4825C117.044 31.9652 117.008 32.3099 116.897 32.5857C116.824 32.8616 116.677 33.0684 116.567 33.2408C116.42 33.4132 116.309 33.5166 116.162 33.5511C116.089 33.62 115.942 33.62 115.758 33.62Z" fill="#006A69"/>
<path d="M124.395 33.5856L125.975 31.6893C125.57 31.6204 125.203 31.448 124.983 31.2067C124.725 30.9653 124.615 30.655 124.615 30.2758C124.615 29.8621 124.725 29.5518 124.983 29.3104C125.313 29.0001 125.828 28.8278 126.452 28.8278H128.621V33.5856H128.033V31.7583H126.563L125.056 33.5856H124.395ZM126.489 31.3101H128.033V29.3104H126.489C126.085 29.3104 125.754 29.4139 125.534 29.5862C125.313 29.7586 125.166 30 125.166 30.3103C125.166 30.6206 125.277 30.8619 125.534 31.0343C125.791 31.2067 126.085 31.3101 126.489 31.3101Z" fill="#006A69"/>
<path d="M138.359 34.6197V33.0682H138.873C139.388 32.3097 139.645 31.172 139.645 29.6205V28.7931H142.952V33.0682H143.614L143.54 34.6197H143.063V33.5509H138.947L138.837 34.6197H138.359ZM139.535 33.1027H142.401V29.3102H140.196V29.9308C140.196 30.5514 140.123 31.172 140.013 31.7236C139.902 32.3097 139.719 32.7579 139.535 33.1027Z" fill="#006A69"/>
<path d="M152.066 32.9317C151.588 33.4144 150.964 33.6557 150.192 33.6557C149.457 33.6557 148.832 33.4144 148.355 32.9317C147.877 32.449 147.62 31.8629 147.62 31.2079C147.62 30.5183 147.877 29.9667 148.355 29.484C148.832 29.0013 149.457 28.76 150.229 28.76C150.964 28.76 151.588 29.0013 152.066 29.484C152.544 29.9667 152.801 30.5528 152.801 31.2079C152.764 31.8629 152.544 32.449 152.066 32.9317ZM148.796 32.5869C149.163 32.9662 149.641 33.173 150.229 33.173C150.817 33.173 151.258 33.0007 151.662 32.6214C152.029 32.2422 152.213 31.794 152.213 31.2423C152.213 30.6907 152.029 30.2425 151.662 29.8633C151.295 29.484 150.817 29.2772 150.229 29.2772C149.641 29.2772 149.2 29.4495 148.796 29.8288C148.428 30.208 148.244 30.6562 148.244 31.2079C148.208 31.7595 148.391 32.2077 148.796 32.5869Z" fill="#006A69"/>
<path d="M157.395 33.5856V28.8278H157.983L159.82 31.4135L161.657 28.8278H162.245V33.5856H161.657V29.7242L159.82 32.2754H159.783L157.946 29.7242V33.5511L157.395 33.5856Z" fill="#006A69"/>
<path d="M166.619 33.5854L168.934 28.7931H169.485L171.8 33.5854H171.176L170.588 32.3442H167.831L167.243 33.5854H166.619ZM168.015 31.8271H170.33L169.191 29.4137L168.015 31.8271Z" fill="#006A69"/>
</svg>
