<svg width="20" height="19" viewBox="0 0 20 19" fill="none" xmlns="http://www.w3.org/2000/svg">
<g opacity="0.95">
<path opacity="0.95" d="M10.2649 18.2802C8.39054 18.2802 6.51309 18.2802 4.63875 18.2802C3.84301 18.2802 3.24621 17.9258 2.84834 17.2233C2.6867 16.9391 2.64008 16.6166 2.59034 16.2941C2.41938 15.1862 2.22977 14.0814 2.04949 12.9766C1.88786 11.9867 1.72311 10.9937 1.56769 10.0038C1.55215 9.90166 1.50553 9.82822 1.44336 9.75478C0.977106 9.20557 0.747088 8.56696 0.778171 7.83575C0.81858 6.86826 1.25375 6.13385 2.03395 5.61019C2.38519 5.37391 2.77374 5.23022 3.19958 5.20468C3.28973 5.19829 3.33635 5.1472 3.38298 5.07695C3.9487 4.22441 4.51753 3.37186 5.08325 2.52251C5.54639 1.82323 6.00954 1.12396 6.47579 0.42787C6.71824 0.0638626 7.02908 -0.0670526 7.37722 0.031932C7.88388 0.175619 8.11701 0.782299 7.82793 1.23252C7.52331 1.70828 7.20626 2.17447 6.89231 2.64385C6.367 3.43573 5.83858 4.22441 5.31327 5.01629C5.28529 5.0578 5.22623 5.09931 5.2511 5.15039C5.27597 5.20148 5.34435 5.17594 5.39408 5.17594C7.60102 5.17594 9.80795 5.17594 12.0149 5.17594C13.0562 5.17594 14.0975 5.17594 15.1388 5.17594C15.1885 5.17594 15.2569 5.20148 15.2849 5.15359C15.3129 5.1025 15.2507 5.06099 15.2258 5.01948C14.3928 3.7678 13.5597 2.51613 12.7298 1.26445C12.5433 0.983462 12.5464 0.597102 12.7267 0.348044C12.9412 0.0510903 13.2676 -0.0638596 13.6064 0.0415111C13.8115 0.105372 13.9514 0.255446 14.0664 0.42787C14.9803 1.79769 15.891 3.16751 16.8018 4.54052C16.923 4.72572 17.0504 4.90772 17.1685 5.09292C17.2183 5.17275 17.2836 5.20148 17.3737 5.20787C18.4989 5.29089 19.5527 6.29351 19.7267 7.43981C19.8573 8.30194 19.677 9.07785 19.1051 9.742C19.0056 9.86015 18.9745 9.98787 18.9527 10.1316C18.7725 11.2332 18.5922 12.3348 18.4119 13.4332C18.2969 14.1293 18.1881 14.8285 18.07 15.5246C18.0109 15.8822 17.9674 16.2399 17.9052 16.5943C17.7312 17.5841 16.9416 18.2738 15.9967 18.2802C14.0882 18.2866 12.1765 18.2802 10.2649 18.2802ZM10.2742 6.78843C8.06727 6.78843 5.86034 6.78843 3.6534 6.78843C3.52907 6.78843 3.40473 6.79482 3.2804 6.81397C2.68981 6.89699 2.27329 7.46855 2.34478 8.07204C2.3883 8.42008 2.55615 8.6883 2.82658 8.89584C2.93537 8.97886 3.00686 9.07466 3.02551 9.21834C3.07214 9.55042 3.1312 9.8793 3.18404 10.2082C3.36743 11.3417 3.55083 12.4721 3.73733 13.6056C3.88342 14.506 4.03573 15.4097 4.17872 16.3101C4.20669 16.4953 4.29994 16.6166 4.47401 16.6582C4.55172 16.6773 4.63875 16.6741 4.71957 16.6741C8.41852 16.6741 12.1144 16.6741 15.8133 16.6741C15.8848 16.6741 15.9594 16.6741 16.0309 16.6645C16.2081 16.6358 16.32 16.5209 16.351 16.342C16.3852 16.1441 16.4132 15.9429 16.4443 15.7449C16.6059 14.7423 16.7707 13.7429 16.9354 12.7403C17.1064 11.7025 17.2804 10.6648 17.4452 9.62705C17.498 9.29178 17.554 8.99483 17.8493 8.74577C18.3217 8.34983 18.3155 7.6282 17.9021 7.16202C17.6441 6.87145 17.3115 6.78524 16.9479 6.78524C14.7285 6.78843 12.4998 6.78843 10.2742 6.78843Z" fill="#8E8E8E"/>
<path opacity="0.95" d="M5.8199 12.3188C5.8199 11.4088 5.81368 10.4987 5.82301 9.59192C5.82612 9.02675 6.34522 8.64039 6.85499 8.83197C7.17827 8.95331 7.38342 9.20556 7.38653 9.68132C7.38653 10.0964 7.38653 10.5115 7.38653 10.9266C7.38653 12.2549 7.38653 13.5864 7.38653 14.9147C7.38653 15.1989 7.3368 15.4639 7.10677 15.6619C6.86121 15.8726 6.58146 15.9237 6.29548 15.7928C5.99708 15.6587 5.82612 15.4096 5.82612 15.0648C5.81679 14.1484 5.8199 13.232 5.8199 12.3188Z" fill="#8E8E8E"/>
<path opacity="0.95" d="M14.7254 12.3251C14.7254 13.2287 14.7285 14.1324 14.7254 15.036C14.7223 15.5309 14.3555 15.879 13.8831 15.8502C13.5443 15.8311 13.2303 15.5341 13.1868 15.1893C13.1744 15.0999 13.165 15.0105 13.165 14.921C13.165 13.1872 13.165 11.4534 13.165 9.71958C13.165 9.42902 13.221 9.1608 13.4603 8.96603C13.7121 8.76167 13.9888 8.72016 14.2747 8.85746C14.5607 8.99476 14.7223 9.23744 14.7254 9.56313C14.7317 10.3071 14.7285 11.0511 14.7285 11.7951C14.7254 11.9739 14.7254 12.1495 14.7254 12.3251Z" fill="#8E8E8E"/>
<path opacity="0.95" d="M9.49101 12.3188C9.49101 11.4343 9.49101 10.553 9.49101 9.66854C9.49101 9.39074 9.56561 9.14169 9.78631 8.96287C10.0257 8.77129 10.293 8.7234 10.5758 8.84792C10.8742 8.98203 11.0234 9.2279 11.0545 9.55678C11.0576 9.59829 11.0576 9.64299 11.0576 9.6845C11.0576 11.4407 11.0576 13.1969 11.0576 14.953C11.0576 15.2372 10.9924 15.4927 10.7623 15.6747C10.5168 15.8694 10.2463 15.9141 9.96038 15.7832C9.63711 15.6332 9.49723 15.3554 9.49412 15.0009C9.4879 14.1069 9.49101 13.2128 9.49101 12.3188Z" fill="#8E8E8E"/>
</g>
</svg>
