<svg width="75" height="62" viewBox="0 0 75 62" fill="none" xmlns="http://www.w3.org/2000/svg">
<path d="M18.5377 54.1837V51.0963C18.5377 49.9128 17.8228 49.1409 16.5972 49.1409C15.9843 49.1409 15.3205 49.3468 14.8609 50.0157C14.5034 49.4497 13.9927 49.1409 13.2267 49.1409C12.716 49.1409 12.2053 49.2953 11.7968 49.8613V49.2439H10.7244V54.1837H11.7968V51.4565C11.7968 50.5817 12.2564 50.1701 12.9713 50.1701C13.6863 50.1701 14.0438 50.6332 14.0438 51.4565V54.1837H15.1162V51.4565C15.1162 50.5817 15.6269 50.1701 16.2907 50.1701C17.0057 50.1701 17.3632 50.6332 17.3632 51.4565V54.1837H18.5377ZM34.4198 49.2439H32.6835V47.7516H31.6111V49.2439H30.6408V50.2215H31.6111V52.4856C31.6111 53.6176 32.0707 54.2866 33.2963 54.2866C33.7559 54.2866 34.2666 54.1322 34.624 53.9264L34.3176 53.0002C34.0112 53.206 33.6538 53.2575 33.3984 53.2575C32.8877 53.2575 32.6835 52.9487 32.6835 52.4342V50.2215H34.4198V49.2439ZM43.5098 49.1409C42.897 49.1409 42.4885 49.4497 42.2331 49.8613V49.2439H41.1607V54.1837H42.2331V51.405C42.2331 50.5817 42.5906 50.1186 43.2545 50.1186C43.4588 50.1186 43.7141 50.1701 43.9184 50.2215L44.2248 49.1924C44.0205 49.1409 43.7141 49.1409 43.5098 49.1409ZM29.7726 49.6555C29.2619 49.2953 28.547 49.1409 27.781 49.1409C26.5554 49.1409 25.7383 49.7584 25.7383 50.7361C25.7383 51.5594 26.3511 52.0225 27.4235 52.1769L27.9342 52.2283C28.4959 52.3312 28.8023 52.4856 28.8023 52.7429C28.8023 53.1031 28.3938 53.3604 27.6788 53.3604C26.9639 53.3604 26.4022 53.1031 26.0447 52.8458L25.534 53.6691C26.0957 54.0808 26.8618 54.2866 27.6278 54.2866C29.0577 54.2866 29.8748 53.6177 29.8748 52.6914C29.8748 51.8167 29.2109 51.3536 28.1895 51.1992L27.6788 51.1477C27.2192 51.0963 26.8618 50.9934 26.8618 50.6846C26.8618 50.3244 27.2192 50.1186 27.781 50.1186C28.3938 50.1186 29.0066 50.3759 29.313 50.5303L29.7726 49.6555ZM58.2684 49.1409C57.6556 49.1409 57.247 49.4497 56.9917 49.8613V49.2439H55.9193V54.1837H56.9917V51.405C56.9917 50.5817 57.3492 50.1186 58.0131 50.1186C58.2173 50.1186 58.4727 50.1701 58.6769 50.2215L58.9833 49.1924C58.7791 49.1409 58.4727 49.1409 58.2684 49.1409ZM44.5822 51.7138C44.5822 53.206 45.6036 54.2866 47.1867 54.2866C47.9016 54.2866 48.4123 54.1322 48.923 53.7206L48.4123 52.8458C48.0038 53.1545 47.5952 53.3089 47.1356 53.3089C46.2675 53.3089 45.6547 52.6914 45.6547 51.7138C45.6547 50.7875 46.2675 50.1701 47.1356 50.1186C47.5952 50.1186 48.0038 50.273 48.4123 50.5817L48.923 49.707C48.4123 49.2953 47.9016 49.1409 47.1867 49.1409C45.6036 49.1409 44.5822 50.2215 44.5822 51.7138ZM54.4894 51.7138V49.2439H53.417V49.8613C53.0595 49.3982 52.5488 49.1409 51.8849 49.1409C50.5061 49.1409 49.4337 50.2215 49.4337 51.7138C49.4337 53.206 50.5061 54.2866 51.8849 54.2866C52.5999 54.2866 53.1106 54.0293 53.417 53.5662V54.1837H54.4894V51.7138ZM50.5572 51.7138C50.5572 50.839 51.1189 50.1186 52.0381 50.1186C52.9063 50.1186 53.5191 50.7875 53.5191 51.7138C53.5191 52.5885 52.9063 53.3089 52.0381 53.3089C51.1189 53.2575 50.5572 52.5885 50.5572 51.7138ZM37.7392 49.1409C36.3093 49.1409 35.2879 50.1701 35.2879 51.7138C35.2879 53.2575 36.3093 54.2866 37.7902 54.2866C38.5052 54.2866 39.2201 54.0808 39.7819 53.6177L39.2712 52.8458C38.8627 53.1545 38.352 53.3604 37.8413 53.3604C37.1774 53.3604 36.5135 53.0516 36.3603 52.1769H39.9862V51.7652C40.0372 50.1701 39.118 49.1409 37.7392 49.1409ZM37.7392 50.0672C38.4031 50.0672 38.8627 50.4788 38.9648 51.2507H36.4114C36.5135 50.5817 36.9732 50.0672 37.7392 50.0672ZM64.3455 51.7138V47.2885H63.273V49.8613C62.9156 49.3982 62.4049 49.1409 61.741 49.1409C60.3622 49.1409 59.2898 50.2215 59.2898 51.7138C59.2898 53.206 60.3622 54.2866 61.741 54.2866C62.4559 54.2866 62.9666 54.0293 63.273 53.5662V54.1837H64.3455V51.7138ZM60.4132 51.7138C60.4132 50.839 60.975 50.1186 61.8942 50.1186C62.7623 50.1186 63.3752 50.7875 63.3752 51.7138C63.3752 52.5885 62.7623 53.3089 61.8942 53.3089C60.975 53.2575 60.4132 52.5885 60.4132 51.7138ZM24.5637 51.7138V49.2439H23.4913V49.8613C23.1338 49.3982 22.6231 49.1409 21.9593 49.1409C20.5804 49.1409 19.508 50.2215 19.508 51.7138C19.508 53.206 20.5804 54.2866 21.9593 54.2866C22.6742 54.2866 23.1849 54.0293 23.4913 53.5662V54.1837H24.5637V51.7138ZM20.5804 51.7138C20.5804 50.839 21.1422 50.1186 22.0614 50.1186C22.9295 50.1186 23.5424 50.7875 23.5424 51.7138C23.5424 52.5885 22.9295 53.3089 22.0614 53.3089C21.1422 53.2575 20.5804 52.5885 20.5804 51.7138Z" fill="black"/>
<path d="M45.5014 11.7322H29.415V40.8566H45.5014V11.7322Z" fill="#FF5F00"/>
<path d="M30.4366 26.2943C30.4366 20.3768 33.1942 15.1282 37.4328 11.7321C34.3177 9.26217 30.3855 7.76993 26.0958 7.76993C15.9333 7.76993 7.71143 16.0544 7.71143 26.2943C7.71143 36.5341 15.9333 44.8186 26.0958 44.8186C30.3855 44.8186 34.3177 43.3264 37.4328 40.8565C33.1942 37.5118 30.4366 32.2118 30.4366 26.2943Z" fill="#EB001B"/>
<path d="M67.2053 26.2943C67.2053 36.5341 58.9834 44.8186 48.8209 44.8186C44.5312 44.8186 40.599 43.3264 37.4839 40.8565C41.7736 37.4603 44.4802 32.2118 44.4802 26.2943C44.4802 20.3768 41.7225 15.1282 37.4839 11.7321C40.599 9.26217 44.5312 7.76993 48.8209 7.76993C58.9834 7.76993 67.2053 16.1059 67.2053 26.2943Z" fill="#F79E1B"/>
</svg>
