<svg width="19" height="20" viewBox="0 0 19 20" fill="none" xmlns="http://www.w3.org/2000/svg">
<path d="M1.51971 4.84381C1.66497 3.63782 1.98708 2.70854 2.63959 1.92204C2.81439 1.7124 3.01015 1.53001 3.24884 1.39398C3.82665 1.05987 4.30019 1.08807 4.83329 1.4942C5.31852 1.86161 5.67255 2.34504 5.99479 2.85759C6.44145 3.57875 6.79361 4.3462 7.08958 5.14395C7.23931 5.5451 7.14545 5.88807 6.87728 6.20181C6.51524 6.6237 6.17515 7.06472 5.79515 7.46797C5.29346 8.00899 5.12749 8.61516 5.32469 9.32687C5.38942 9.56124 5.47058 9.79347 5.5776 10.0123C5.92766 10.7301 6.30757 11.435 6.80182 12.063C7.25413 12.6365 7.7755 13.1401 8.32818 13.6186C8.66886 13.911 9.02638 14.1641 9.4598 14.2905C9.83444 14.4015 10.1979 14.4041 10.5709 14.2266C11.2175 13.9255 11.8246 13.5496 12.4747 13.253C12.7741 13.116 13.0679 13.1267 13.3326 13.311C14.3174 13.994 15.2361 14.7556 15.9493 15.7477C16.129 16.0001 16.278 16.2734 16.3837 16.5704C16.5896 17.1761 16.4623 17.6963 15.9867 18.121C15.3755 18.6653 14.6382 18.8813 13.8547 18.9764C12.6646 19.1256 11.5617 18.8197 10.4917 18.3406C8.02582 17.2362 5.96113 15.6198 4.35171 13.4116C3.3495 12.0344 2.61484 10.5164 2.1174 8.87464C1.84561 7.97681 1.64896 7.05919 1.54338 6.12371C1.48507 5.6347 1.47604 5.13928 1.51971 4.84381Z" fill="#979797"/>
</svg>
